<svg width="360" height="213" viewBox="0 0 360 213" fill="none" xmlns="http://www.w3.org/2000/svg">
<path d="M196.827 198.188C131.941 222.189 80.7091 210.188 66.7048 203.688C52.3116 195.188 22.1247 175.687 16.523 165.687C9.52093 153.187 -1.56562 138.186 0.184911 122.686L294.274 1.68228C302.443 -5.81793 338.037 24.6829 342.705 28.183C347.373 31.6831 377.715 70.1842 345.039 92.6849C312.362 115.186 315.863 117.686 286.104 146.686C262.297 169.887 216.667 190.688 196.827 198.188Z" fill="#E1FC67"/>
<path d="M113.5 211.5C107.834 189.333 102.4 139.7 126 118.5" stroke="black" stroke-width="1.5"/>
<path d="M202.5 195.5C191.667 179.833 188.3 155.4 249.5 173" stroke="black" stroke-width="1.5"/>
<path d="M160.674 208.5C135.675 166.147 131.5 105 278 153" stroke="black" stroke-width="1.5"/>
</svg>
