<svg width="20" height="20" viewBox="0 0 20 20" fill="none" xmlns="http://www.w3.org/2000/svg">
<path d="M17.8203 9.46831L6.57812 2.59331C6.48349 2.53493 6.37499 2.50286 6.26382 2.5004C6.15265 2.49794 6.04284 2.52518 5.94571 2.57932C5.84859 2.63345 5.76766 2.71252 5.71128 2.80837C5.65491 2.90421 5.62512 3.01336 5.625 3.12456V16.8746C5.62512 16.9858 5.65491 17.0949 5.71128 17.1907C5.76766 17.2866 5.84859 17.3657 5.94571 17.4198C6.04284 17.4739 6.15265 17.5012 6.26382 17.4987C6.37499 17.4963 6.48349 17.4642 6.57812 17.4058L17.8203 10.5308C17.9126 10.4762 17.9891 10.3985 18.0423 10.3054C18.0954 10.2122 18.1233 10.1068 18.1233 9.99956C18.1233 9.89231 18.0954 9.78691 18.0423 9.69376C17.9891 9.6006 17.9126 9.5229 17.8203 9.46831V9.46831Z" stroke="black" stroke-width="1.8" stroke-linecap="round" stroke-linejoin="round"/>
</svg>
