<svg width="464" height="550" viewBox="0 0 464 550" fill="none" xmlns="http://www.w3.org/2000/svg">
<rect width="464" height="550" fill="black"/>
<path d="M142.953 287.572C154.524 287.572 163.905 278.191 163.905 266.619C163.905 265.308 163.784 264.024 163.554 262.78C162.309 262.549 161.026 262.429 159.714 262.429C148.143 262.429 138.762 271.809 138.762 283.381C138.762 284.693 138.883 285.976 139.113 287.221C140.358 287.451 141.641 287.572 142.953 287.572Z" fill="#DAFD00"/>
<path opacity="0.8" fill-rule="evenodd" clip-rule="evenodd" d="M139.113 287.221C129.375 285.417 122 276.879 122 266.619C122 255.047 131.381 245.667 142.952 245.667C153.213 245.667 161.75 253.042 163.554 262.78C162.309 262.549 161.026 262.429 159.714 262.429C148.143 262.429 138.762 271.809 138.762 283.381C138.762 284.692 138.882 285.976 139.113 287.221Z" fill="#DAFD00"/>
<path opacity="0.6" fill-rule="evenodd" clip-rule="evenodd" d="M142.952 287.571C154.524 287.571 163.905 278.191 163.905 266.619C163.905 265.308 163.784 264.024 163.554 262.78C173.292 264.583 180.667 273.121 180.667 283.381C180.667 294.953 171.286 304.333 159.714 304.333C149.454 304.333 140.916 296.958 139.113 287.22C140.358 287.451 141.641 287.571 142.952 287.571Z" fill="#DAFD00"/>
<path d="M212.067 288.653C219.227 288.653 224.387 284.613 224.907 278.613H218.907C218.427 281.493 215.667 283.453 212.067 283.453C207.547 283.453 204.067 280.333 204.067 274.333C204.067 268.333 207.547 265.173 212.067 265.173C215.587 265.173 218.347 267.133 218.747 270.053H225.027C224.267 264.013 219.107 260.013 212.067 260.013C204.587 260.013 198.027 264.893 198.027 274.333C198.027 283.773 204.467 288.653 212.067 288.653Z" fill="white"/>
<path d="M236.042 267.853C230.522 267.853 227.242 271.093 227.002 275.133H231.962C232.042 273.453 233.282 271.933 235.722 271.933C238.002 271.933 239.322 273.093 239.322 274.773C239.322 275.613 238.802 276.253 237.802 276.253H234.402C230.002 276.253 227.042 278.653 227.042 282.613C227.042 286.053 229.722 288.653 233.642 288.653C236.402 288.653 238.642 287.413 239.322 285.533V288.333H244.842V275.373C244.842 270.813 241.122 267.853 236.042 267.853ZM235.042 284.613C233.482 284.613 232.362 283.693 232.362 282.373C232.362 280.813 233.562 279.773 235.242 279.773H239.322V280.053C239.322 282.613 237.762 284.613 235.042 284.613Z" fill="white"/>
<path d="M248.578 296.493H254.138V286.533C255.218 287.893 257.178 288.653 259.458 288.653C265.258 288.653 269.178 284.533 269.178 278.253C269.178 271.973 265.578 267.853 259.938 267.853C257.338 267.853 255.338 268.813 254.138 270.373V268.173H248.578V296.493ZM258.778 283.853C255.778 283.853 253.818 281.613 253.818 278.253C253.818 274.853 255.778 272.613 258.778 272.613C261.698 272.613 263.698 274.853 263.698 278.253C263.698 281.613 261.698 283.853 258.778 283.853Z" fill="white"/>
<path d="M278.968 288.653C283.688 288.653 286.808 286.133 286.808 282.293C286.808 273.173 275.768 277.853 275.768 273.733C275.768 272.453 276.848 271.773 278.408 271.773C279.928 271.773 281.488 272.693 281.728 274.413H286.568C286.368 270.453 283.088 267.853 278.248 267.853C274.128 267.853 271.048 270.373 271.048 273.933C271.048 282.413 281.888 278.373 281.888 282.493C281.888 283.613 280.688 284.453 278.968 284.453C276.888 284.453 275.488 283.333 275.288 281.533H270.488C270.688 285.893 274.048 288.653 278.968 288.653Z" fill="white"/>
<path d="M308.769 268.173H303.169V279.213C303.169 281.773 301.449 283.693 299.009 283.693C296.729 283.693 295.129 281.933 295.129 279.493V268.173H289.569V280.733C289.569 285.333 292.529 288.653 297.049 288.653C299.809 288.653 302.049 287.453 303.169 285.533V288.333H308.769V268.173Z" fill="white"/>
<path d="M312.769 288.333H318.329V259.413H312.769V288.333Z" fill="white"/>
<path d="M335.802 281.493C335.362 283.213 333.882 284.093 331.642 284.093C328.842 284.093 327.042 282.333 326.642 279.493H341.122C341.162 279.053 341.202 278.453 341.202 277.693C341.202 273.093 338.362 267.853 331.242 267.853C324.402 267.853 321.282 273.093 321.282 278.213C321.282 283.293 324.802 288.653 331.642 288.653C336.602 288.653 340.442 285.853 341.242 281.493H335.802ZM331.242 271.933C333.922 271.933 335.482 273.733 335.642 275.973H326.722C327.202 273.173 328.722 271.933 331.242 271.933Z" fill="white"/>
</svg>
