<svg width="464" height="550" viewBox="0 0 464 550" fill="none" xmlns="http://www.w3.org/2000/svg">
<rect width="464" height="550" fill="black"/>
<path d="M218.396 277.75C218.396 286.622 211.455 293.16 202.938 293.16C194.42 293.16 187.479 286.622 187.479 277.75C187.479 268.816 194.42 262.341 202.938 262.341C211.455 262.341 218.396 268.816 218.396 277.75ZM211.629 277.75C211.629 272.206 207.606 268.413 202.938 268.413C198.269 268.413 194.246 272.206 194.246 277.75C194.246 283.239 198.269 287.088 202.938 287.088C207.606 287.088 211.629 283.232 211.629 277.75Z" fill="#DAFD00"/>
<path d="M251.745 277.75C251.745 286.622 244.804 293.16 236.286 293.16C227.769 293.16 220.828 286.622 220.828 277.75C220.828 268.823 227.769 262.341 236.286 262.341C244.804 262.341 251.745 268.816 251.745 277.75ZM244.978 277.75C244.978 272.206 240.955 268.413 236.286 268.413C231.618 268.413 227.595 272.206 227.595 277.75C227.595 283.239 231.618 287.088 236.286 287.088C240.955 287.088 244.978 283.232 244.978 277.75Z" fill="#DAFD00"/>
<path d="M283.704 263.272V290.937C283.704 302.317 276.993 306.965 269.058 306.965C261.59 306.965 257.095 301.97 255.4 297.884L261.291 295.432C262.34 297.94 264.911 300.9 269.052 300.9C274.13 300.9 277.277 297.766 277.277 291.868V289.652H277.041C275.527 291.52 272.609 293.153 268.926 293.153C261.222 293.153 254.163 286.442 254.163 277.806C254.163 269.108 261.222 262.341 268.926 262.341C272.602 262.341 275.52 263.973 277.041 265.787H277.277V263.278H283.704V263.272ZM277.757 277.806C277.757 272.38 274.137 268.413 269.531 268.413C264.862 268.413 260.951 272.38 260.951 277.806C260.951 283.176 264.862 287.088 269.531 287.088C274.137 287.088 277.757 283.176 277.757 277.806Z" fill="white"/>
<path d="M294.298 247.056V292.215H287.698V247.056H294.298Z" fill="white"/>
<path d="M320.019 282.822L325.271 286.323C323.576 288.832 319.491 293.153 312.432 293.153C303.678 293.153 297.141 286.386 297.141 277.743C297.141 268.579 303.734 262.333 311.675 262.333C319.672 262.333 323.583 268.697 324.861 272.137L325.563 273.887L304.964 282.419C306.541 285.511 308.993 287.088 312.432 287.088C315.878 287.088 318.268 285.393 320.019 282.822ZM303.852 277.278L317.622 271.56C316.865 269.635 314.586 268.295 311.904 268.295C308.465 268.295 303.678 271.331 303.852 277.278Z" fill="white"/>
<path d="M162.496 273.741V267.204H184.527C184.742 268.343 184.853 269.691 184.853 271.15C184.853 276.055 183.512 282.12 179.191 286.441C174.988 290.818 169.617 293.153 162.503 293.153C149.316 293.153 138.228 282.412 138.228 269.225C138.228 256.039 149.316 245.298 162.503 245.298C169.798 245.298 174.994 248.16 178.899 251.891L174.286 256.504C171.486 253.878 167.693 251.836 162.496 251.836C152.866 251.836 145.335 259.596 145.335 269.225C145.335 278.855 152.866 286.615 162.496 286.615C168.742 286.615 172.299 284.107 174.578 281.828C176.426 279.98 177.642 277.34 178.121 273.734L162.496 273.741Z" fill="white"/>
</svg>
