<svg width="464" height="550" viewBox="0 0 464 550" fill="none" xmlns="http://www.w3.org/2000/svg">
<rect width="464" height="550" fill="black"/>
<path d="M148.174 275C143.435 280.295 136.548 283.627 128.882 283.627C121.217 283.627 114.33 280.295 109.59 275C114.33 269.705 121.217 266.373 128.882 266.373C136.548 266.373 143.435 269.705 148.174 275Z" fill="#DAFD00"/>
<path opacity="0.6" fill-rule="evenodd" clip-rule="evenodd" d="M103 292.255C103 277.96 114.588 266.373 128.882 266.373C121.217 266.373 114.33 269.705 109.591 275C114.33 280.295 121.217 283.627 128.882 283.627C136.548 283.627 143.435 280.295 148.174 275C152.273 279.579 154.765 285.626 154.765 292.255V302.033C154.765 303.303 153.735 304.333 152.464 304.333H105.301C104.03 304.333 103 303.303 103 302.033V292.255ZM148.174 275C148.174 275 148.174 275 148.174 275V275Z" fill="#DAFD00"/>
<path opacity="0.8" fill-rule="evenodd" clip-rule="evenodd" d="M119.174 281.745C115.479 280.249 112.207 277.923 109.591 275C114.33 269.705 121.217 266.373 128.882 266.373C136.548 266.373 143.435 269.705 148.174 275C148.174 275 148.174 275 148.174 275C152.273 270.421 154.765 264.374 154.765 257.745V247.967C154.765 246.697 153.735 245.667 152.464 245.667L105.301 245.667C104.03 245.667 103 246.697 103 247.967L103 257.745C103 268.606 109.69 277.905 119.174 281.745Z" fill="#DAFD00"/>
<path d="M195.192 262.275V288.333H189.965V277.245H178.803V288.333H173.576V262.275H178.803V272.989H189.965V262.275H195.192Z" fill="white"/>
<path d="M209.521 288.669C207.529 288.669 205.737 288.234 204.145 287.363C202.552 286.467 201.295 285.21 200.374 283.592C199.478 281.974 199.03 280.108 199.03 277.992C199.03 275.876 199.49 274.01 200.411 272.392C201.357 270.774 202.639 269.53 204.257 268.659C205.874 267.763 207.679 267.315 209.67 267.315C211.661 267.315 213.465 267.763 215.083 268.659C216.701 269.53 217.97 270.774 218.891 272.392C219.837 274.01 220.31 275.876 220.31 277.992C220.31 280.108 219.825 281.974 218.854 283.592C217.908 285.21 216.614 286.467 214.971 287.363C213.353 288.234 211.537 288.669 209.521 288.669ZM209.521 284.115C210.466 284.115 211.35 283.891 212.171 283.443C213.017 282.97 213.689 282.273 214.187 281.352C214.685 280.431 214.934 279.311 214.934 277.992C214.934 276.026 214.411 274.52 213.366 273.475C212.345 272.404 211.089 271.869 209.595 271.869C208.102 271.869 206.845 272.404 205.825 273.475C204.829 274.52 204.331 276.026 204.331 277.992C204.331 279.958 204.817 281.476 205.787 282.547C206.783 283.592 208.027 284.115 209.521 284.115Z" fill="white"/>
<path d="M243.669 267.651V288.333H238.405V285.72C237.733 286.616 236.85 287.325 235.755 287.848C234.684 288.346 233.515 288.595 232.245 288.595C230.627 288.595 229.196 288.259 227.952 287.587C226.707 286.89 225.724 285.882 225.003 284.563C224.306 283.219 223.957 281.626 223.957 279.784V267.651H229.184V279.037C229.184 280.68 229.595 281.949 230.416 282.845C231.237 283.716 232.357 284.152 233.776 284.152C235.219 284.152 236.352 283.716 237.173 282.845C237.995 281.949 238.405 280.68 238.405 279.037V267.651H243.669Z" fill="white"/>
<path d="M254.053 270.861C254.725 269.766 255.596 268.908 256.666 268.285C257.761 267.663 259.006 267.352 260.399 267.352V272.84H259.018C257.375 272.84 256.131 273.226 255.285 273.997C254.463 274.769 254.053 276.113 254.053 278.029V288.333H248.826V267.651H254.053V270.861Z" fill="white"/>
<path d="M272.021 267.315C273.564 267.315 274.921 267.626 276.091 268.248C277.26 268.845 278.181 269.629 278.853 270.6V267.651H284.117V288.483C284.117 290.399 283.731 292.104 282.96 293.597C282.188 295.116 281.031 296.31 279.488 297.181C277.945 298.077 276.078 298.525 273.888 298.525C270.951 298.525 268.537 297.841 266.645 296.472C264.779 295.103 263.721 293.236 263.472 290.872H268.661C268.935 291.818 269.52 292.564 270.416 293.112C271.337 293.684 272.444 293.971 273.739 293.971C275.257 293.971 276.489 293.51 277.435 292.589C278.38 291.693 278.853 290.324 278.853 288.483V285.272C278.181 286.243 277.248 287.052 276.053 287.699C274.883 288.346 273.539 288.669 272.021 288.669C270.279 288.669 268.686 288.221 267.243 287.325C265.799 286.429 264.654 285.172 263.808 283.555C262.987 281.912 262.576 280.033 262.576 277.917C262.576 275.827 262.987 273.972 263.808 272.355C264.654 270.737 265.787 269.492 267.205 268.621C268.649 267.75 270.254 267.315 272.021 267.315ZM278.853 277.992C278.853 276.723 278.604 275.64 278.107 274.744C277.609 273.823 276.937 273.126 276.091 272.653C275.244 272.156 274.336 271.907 273.365 271.907C272.395 271.907 271.499 272.143 270.677 272.616C269.856 273.089 269.184 273.786 268.661 274.707C268.163 275.603 267.915 276.673 267.915 277.917C267.915 279.162 268.163 280.257 268.661 281.203C269.184 282.124 269.856 282.833 270.677 283.331C271.523 283.828 272.419 284.077 273.365 284.077C274.336 284.077 275.244 283.841 276.091 283.368C276.937 282.87 277.609 282.173 278.107 281.277C278.604 280.356 278.853 279.261 278.853 277.992Z" fill="white"/>
<path d="M294.449 260.707V288.333H289.222V260.707H294.449Z" fill="white"/>
<path d="M298.269 277.917C298.269 275.827 298.679 273.972 299.501 272.355C300.347 270.737 301.479 269.492 302.898 268.621C304.341 267.75 305.947 267.315 307.714 267.315C309.257 267.315 310.601 267.626 311.746 268.248C312.916 268.87 313.849 269.654 314.546 270.6V267.651H319.81V288.333H314.546V285.309C313.874 286.28 312.941 287.089 311.746 287.736C310.576 288.358 309.22 288.669 307.677 288.669C305.934 288.669 304.341 288.221 302.898 287.325C301.479 286.429 300.347 285.172 299.501 283.555C298.679 281.912 298.269 280.033 298.269 277.917ZM314.546 277.992C314.546 276.723 314.297 275.64 313.799 274.744C313.301 273.823 312.629 273.126 311.783 272.653C310.937 272.156 310.029 271.907 309.058 271.907C308.087 271.907 307.191 272.143 306.37 272.616C305.549 273.089 304.877 273.786 304.354 274.707C303.856 275.603 303.607 276.673 303.607 277.917C303.607 279.162 303.856 280.257 304.354 281.203C304.877 282.124 305.549 282.833 306.37 283.331C307.216 283.828 308.112 284.077 309.058 284.077C310.029 284.077 310.937 283.841 311.783 283.368C312.629 282.87 313.301 282.173 313.799 281.277C314.297 280.356 314.546 279.261 314.546 277.992Z" fill="white"/>
<path d="M332.829 288.669C331.137 288.669 329.619 288.371 328.275 287.773C326.931 287.151 325.86 286.317 325.064 285.272C324.292 284.227 323.869 283.069 323.795 281.8H329.059C329.158 282.596 329.544 283.256 330.216 283.779C330.913 284.301 331.771 284.563 332.792 284.563C333.788 284.563 334.559 284.364 335.107 283.965C335.679 283.567 335.965 283.057 335.965 282.435C335.965 281.763 335.617 281.265 334.92 280.941C334.248 280.593 333.165 280.22 331.672 279.821C330.129 279.448 328.86 279.062 327.864 278.664C326.893 278.266 326.047 277.656 325.325 276.835C324.628 276.013 324.28 274.906 324.28 273.512C324.28 272.367 324.604 271.322 325.251 270.376C325.923 269.43 326.868 268.684 328.088 268.136C329.332 267.588 330.788 267.315 332.456 267.315C334.92 267.315 336.886 267.937 338.355 269.181C339.823 270.401 340.632 272.056 340.781 274.147H335.779C335.704 273.325 335.355 272.678 334.733 272.205C334.136 271.708 333.327 271.459 332.307 271.459C331.361 271.459 330.627 271.633 330.104 271.981C329.606 272.33 329.357 272.815 329.357 273.437C329.357 274.134 329.706 274.669 330.403 275.043C331.1 275.391 332.182 275.752 333.651 276.125C335.144 276.499 336.376 276.884 337.347 277.283C338.317 277.681 339.151 278.303 339.848 279.149C340.57 279.971 340.943 281.066 340.968 282.435C340.968 283.629 340.632 284.7 339.96 285.645C339.313 286.591 338.367 287.338 337.123 287.885C335.903 288.408 334.472 288.669 332.829 288.669Z" fill="white"/>
<path d="M353.173 288.669C351.481 288.669 349.962 288.371 348.618 287.773C347.274 287.151 346.204 286.317 345.408 285.272C344.636 284.227 344.213 283.069 344.138 281.8H349.402C349.502 282.596 349.888 283.256 350.56 283.779C351.257 284.301 352.115 284.563 353.136 284.563C354.131 284.563 354.903 284.364 355.45 283.965C356.023 283.567 356.309 283.057 356.309 282.435C356.309 281.763 355.961 281.265 355.264 280.941C354.592 280.593 353.509 280.22 352.016 279.821C350.473 279.448 349.203 279.062 348.208 278.664C347.237 278.266 346.391 277.656 345.669 276.835C344.972 276.013 344.624 274.906 344.624 273.512C344.624 272.367 344.947 271.322 345.594 270.376C346.266 269.43 347.212 268.684 348.432 268.136C349.676 267.588 351.132 267.315 352.8 267.315C355.264 267.315 357.23 267.937 358.698 269.181C360.167 270.401 360.976 272.056 361.125 274.147H356.122C356.048 273.325 355.699 272.678 355.077 272.205C354.48 271.708 353.671 271.459 352.65 271.459C351.705 271.459 350.97 271.633 350.448 271.981C349.95 272.33 349.701 272.815 349.701 273.437C349.701 274.134 350.049 274.669 350.746 275.043C351.443 275.391 352.526 275.752 353.994 276.125C355.488 276.499 356.72 276.884 357.69 277.283C358.661 277.681 359.495 278.303 360.192 279.149C360.913 279.971 361.287 281.066 361.312 282.435C361.312 283.629 360.976 284.7 360.304 285.645C359.657 286.591 358.711 287.338 357.466 287.885C356.247 288.408 354.816 288.669 353.173 288.669Z" fill="white"/>
</svg>
