<svg width="464" height="550" viewBox="0 0 464 550" fill="none" xmlns="http://www.w3.org/2000/svg">
<path d="M0 0H464V550H0V0Z" fill="black"/>
<path fill-rule="evenodd" clip-rule="evenodd" d="M253.225 298.012C242.619 305.829 227.246 310 214.011 310C195.452 310 178.745 303.136 166.105 291.719C165.112 290.822 166.002 289.598 167.194 290.297C180.834 298.234 197.701 303.009 215.123 303.009C226.873 303.009 239.799 300.578 251.684 295.533C253.479 294.77 254.981 296.709 253.225 298.012Z" fill="#DAFD00"/>
<path fill-rule="evenodd" clip-rule="evenodd" d="M257.634 292.967C256.284 291.235 248.673 292.149 245.257 292.554C244.216 292.681 244.057 291.775 244.995 291.124C251.056 286.857 261.003 288.089 262.163 289.519C263.323 290.957 261.861 300.927 256.165 305.686C255.291 306.417 254.456 306.028 254.846 305.058C256.125 301.865 258.993 294.707 257.634 292.967Z" fill="#DAFD00"/>
<path fill-rule="evenodd" clip-rule="evenodd" d="M245.495 261.006V256.859C245.495 256.231 245.972 255.81 246.544 255.81H265.111C265.706 255.81 266.183 256.239 266.183 256.859V260.41C266.175 261.006 265.675 261.785 264.785 263.016L255.164 276.752C258.739 276.665 262.513 277.197 265.754 279.024C266.485 279.437 266.684 280.041 266.739 280.637V285.062C266.739 285.666 266.072 286.373 265.373 286.007C259.661 283.012 252.074 282.687 245.758 286.039C245.114 286.389 244.439 285.69 244.439 285.086V280.883C244.439 280.208 244.447 279.056 245.122 278.031L256.268 262.047H246.568C245.972 262.047 245.495 261.626 245.495 261.006Z" fill="white"/>
<path fill-rule="evenodd" clip-rule="evenodd" d="M177.768 286.881H172.12C171.58 286.842 171.151 286.437 171.111 285.92V256.931C171.111 256.351 171.595 255.89 172.199 255.89H177.466C178.015 255.914 178.452 256.335 178.491 256.859V260.649H178.595C179.969 256.986 182.551 255.278 186.031 255.278C189.566 255.278 191.775 256.986 193.363 260.649C194.73 256.986 197.836 255.278 201.165 255.278C203.532 255.278 206.122 256.255 207.703 258.448C209.491 260.887 209.125 264.43 209.125 267.537L209.117 285.833C209.117 286.413 208.633 286.881 208.029 286.881H202.388C201.824 286.842 201.372 286.389 201.372 285.833V270.468C201.372 269.245 201.483 266.194 201.213 265.034C200.792 263.088 199.528 262.539 197.892 262.539C196.525 262.539 195.095 263.453 194.515 264.915C193.935 266.377 193.991 268.824 193.991 270.468V285.833C193.991 286.413 193.506 286.881 192.903 286.881H187.262C186.69 286.842 186.245 286.389 186.245 285.833L186.237 270.468C186.237 267.235 186.77 262.476 182.758 262.476C178.698 262.476 178.857 267.115 178.857 270.468V285.833C178.857 286.413 178.372 286.881 177.768 286.881Z" fill="white"/>
<path fill-rule="evenodd" clip-rule="evenodd" d="M282.167 255.278C290.549 255.278 295.085 262.476 295.085 271.628C295.085 280.47 290.072 287.485 282.167 287.485C273.937 287.485 269.456 280.287 269.456 271.318C269.456 262.293 273.992 255.278 282.167 255.278ZM282.215 261.197C278.052 261.197 277.79 266.869 277.79 270.404C277.79 273.948 277.734 281.511 282.167 281.511C286.545 281.511 286.751 275.41 286.751 271.691C286.751 269.245 286.648 266.321 285.909 264.001C285.274 261.983 284.01 261.197 282.215 261.197Z" fill="white"/>
<path fill-rule="evenodd" clip-rule="evenodd" d="M305.953 286.881H300.329C299.765 286.842 299.312 286.389 299.312 285.833L299.304 256.835C299.351 256.303 299.82 255.89 300.392 255.89H305.628C306.12 255.914 306.525 256.247 306.637 256.7V261.133H306.74C308.321 257.169 310.537 255.278 314.438 255.278C316.972 255.278 319.443 256.192 321.032 258.694C322.51 261.014 322.51 264.915 322.51 267.719V285.968C322.446 286.476 321.977 286.881 321.421 286.881H315.757C315.24 286.842 314.811 286.46 314.756 285.968V270.222C314.756 267.052 315.121 262.412 311.221 262.412C309.846 262.412 308.583 263.334 307.955 264.732C307.161 266.504 307.058 268.267 307.058 270.222V285.833C307.05 286.413 306.557 286.881 305.953 286.881Z" fill="white"/>
<path fill-rule="evenodd" clip-rule="evenodd" d="M230.695 273.034C230.695 275.235 230.75 277.07 229.638 279.024C228.741 280.613 227.311 281.59 225.73 281.59C223.561 281.59 222.29 279.938 222.29 277.499C222.29 272.685 226.603 271.811 230.695 271.811V273.034ZM236.391 286.802C236.018 287.136 235.477 287.159 235.056 286.937C233.182 285.38 232.84 284.657 231.815 283.171C228.717 286.333 226.516 287.279 222.504 287.279C217.745 287.279 214.051 284.347 214.051 278.476C214.051 273.892 216.53 270.77 220.073 269.245C223.14 267.894 227.422 267.656 230.695 267.282V266.551C230.695 265.209 230.798 263.62 230.004 262.46C229.32 261.419 228.002 260.99 226.834 260.99C224.681 260.99 222.766 262.094 222.298 264.382C222.202 264.891 221.829 265.391 221.312 265.415L215.839 264.827C215.378 264.724 214.861 264.351 214.996 263.644C216.252 257.002 222.258 255 227.628 255C230.377 255 233.968 255.731 236.137 257.812C238.886 260.378 238.624 263.803 238.624 267.529V276.331C238.624 278.977 239.72 280.136 240.753 281.567C241.11 282.075 241.19 282.687 240.729 283.068C239.577 284.029 237.527 285.817 236.399 286.818L236.391 286.802Z" fill="white"/>
<path fill-rule="evenodd" clip-rule="evenodd" d="M156.644 273.034C156.644 275.235 156.699 277.07 155.587 279.024C154.689 280.613 153.267 281.59 151.678 281.59C149.51 281.59 148.246 279.938 148.246 277.499C148.246 272.685 152.56 271.811 156.644 271.811V273.034ZM162.34 286.802C161.967 287.136 161.426 287.159 161.005 286.937C159.13 285.38 158.797 284.657 157.764 283.171C154.666 286.333 152.473 287.279 148.453 287.279C143.702 287.279 140 284.347 140 278.476C140 273.892 142.487 270.77 146.022 269.245C149.089 267.894 153.371 267.656 156.644 267.282V266.551C156.644 265.209 156.747 263.62 155.961 262.46C155.269 261.419 153.951 260.99 152.791 260.99C150.638 260.99 148.715 262.094 148.246 264.382C148.151 264.891 147.778 265.391 147.269 265.415L141.788 264.827C141.327 264.724 140.818 264.351 140.945 263.644C142.209 257.002 148.207 255 153.577 255C156.326 255 159.917 255.731 162.086 257.812C164.835 260.378 164.572 263.803 164.572 267.529V276.331C164.572 278.977 165.669 280.136 166.702 281.566C167.067 282.075 167.146 282.687 166.686 283.068C165.534 284.029 163.484 285.817 162.356 286.818L162.34 286.802Z" fill="white"/>
</svg>
