<svg width="464" height="550" viewBox="0 0 464 550" fill="none" xmlns="http://www.w3.org/2000/svg">
<rect width="464" height="550" fill="black"/>
<path opacity="0.7" d="M152.703 272.758C153.8 268.667 158.005 264.462 162.096 263.365L187.601 256.53C191.692 255.434 194.12 257.861 193.024 261.952L186.188 287.458C185.092 291.549 180.887 295.754 176.796 296.85L151.291 303.685C147.2 304.782 144.772 302.354 145.868 298.263L152.703 272.758Z" fill="#DAFD00"/>
<path d="M142.479 262.532C143.575 258.441 147.78 254.236 151.871 253.14L177.376 246.305C181.467 245.208 183.895 247.636 182.799 251.727L175.964 277.232C174.867 281.323 170.662 285.529 166.571 286.625L141.066 293.46C136.975 294.556 134.547 292.129 135.643 288.038L142.479 262.532Z" fill="#DAFD00"/>
<path d="M217.032 283.284H225.395V288.212H210.648V262.004H217.032V283.284Z" fill="white"/>
<path d="M226.424 277.759C226.424 275.618 226.822 273.739 227.618 272.121C228.44 270.504 229.547 269.259 230.941 268.388C232.335 267.517 233.89 267.081 235.608 267.081C237.076 267.081 238.358 267.38 239.453 267.977C240.573 268.575 241.432 269.359 242.029 270.329V267.38H248.413V288.212H242.029V285.263C241.407 286.233 240.536 287.017 239.416 287.615C238.321 288.212 237.039 288.511 235.57 288.511C233.878 288.511 232.335 288.075 230.941 287.204C229.547 286.308 228.44 285.051 227.618 283.433C226.822 281.791 226.424 279.899 226.424 277.759ZM242.029 277.796C242.029 276.203 241.581 274.946 240.685 274.025C239.814 273.105 238.744 272.644 237.474 272.644C236.205 272.644 235.122 273.105 234.226 274.025C233.355 274.921 232.92 276.166 232.92 277.759C232.92 279.352 233.355 280.621 234.226 281.567C235.122 282.488 236.205 282.948 237.474 282.948C238.744 282.948 239.814 282.488 240.685 281.567C241.581 280.646 242.029 279.389 242.029 277.796Z" fill="white"/>
<path d="M273.565 267.38L260.498 298.105H253.629L258.408 287.503L249.933 267.38H257.064L261.88 280.409L266.658 267.38H273.565Z" fill="white"/>
<path d="M294.764 277.46C294.764 278.057 294.727 278.68 294.652 279.327H280.204C280.304 280.621 280.714 281.617 281.436 282.313C282.183 282.985 283.091 283.321 284.161 283.321C285.754 283.321 286.862 282.649 287.484 281.305H294.279C293.93 282.674 293.296 283.906 292.375 285.001C291.479 286.097 290.346 286.955 288.977 287.577C287.609 288.2 286.078 288.511 284.385 288.511C282.345 288.511 280.528 288.075 278.935 287.204C277.342 286.333 276.097 285.089 275.201 283.471C274.305 281.853 273.857 279.961 273.857 277.796C273.857 275.631 274.293 273.739 275.164 272.121C276.06 270.504 277.305 269.259 278.897 268.388C280.49 267.517 282.32 267.081 284.385 267.081C286.401 267.081 288.193 267.505 289.761 268.351C291.329 269.197 292.549 270.404 293.42 271.972C294.316 273.54 294.764 275.369 294.764 277.46ZM288.231 275.78C288.231 274.685 287.857 273.814 287.111 273.167C286.364 272.52 285.431 272.196 284.311 272.196C283.241 272.196 282.332 272.507 281.585 273.129C280.864 273.752 280.416 274.635 280.241 275.78H288.231Z" fill="white"/>
<path d="M303.769 270.852C304.516 269.707 305.449 268.811 306.569 268.164C307.689 267.492 308.934 267.156 310.303 267.156V273.913H308.548C306.955 273.913 305.76 274.262 304.964 274.959C304.168 275.631 303.769 276.825 303.769 278.543V288.212H297.385V267.38H303.769V270.852Z" fill="white"/>
<path d="M321.082 288.511C319.265 288.511 317.647 288.2 316.229 287.577C314.81 286.955 313.69 286.109 312.869 285.039C312.047 283.944 311.587 282.724 311.487 281.38H317.797C317.871 282.102 318.207 282.687 318.805 283.135C319.402 283.583 320.136 283.807 321.007 283.807C321.804 283.807 322.414 283.657 322.837 283.359C323.285 283.035 323.509 282.625 323.509 282.127C323.509 281.529 323.198 281.094 322.575 280.82C321.953 280.521 320.945 280.198 319.551 279.849C318.058 279.501 316.814 279.14 315.818 278.767C314.823 278.369 313.964 277.759 313.242 276.937C312.52 276.091 312.159 274.959 312.159 273.54C312.159 272.345 312.483 271.263 313.13 270.292C313.802 269.297 314.773 268.513 316.042 267.94C317.336 267.368 318.867 267.081 320.634 267.081C323.247 267.081 325.301 267.729 326.794 269.023C328.312 270.317 329.183 272.034 329.407 274.175H323.509C323.409 273.453 323.086 272.881 322.538 272.457C322.015 272.034 321.319 271.823 320.447 271.823C319.701 271.823 319.128 271.972 318.73 272.271C318.332 272.545 318.133 272.93 318.133 273.428C318.133 274.025 318.444 274.473 319.066 274.772C319.713 275.071 320.709 275.369 322.053 275.668C323.596 276.066 324.853 276.465 325.823 276.863C326.794 277.236 327.64 277.858 328.362 278.729C329.109 279.576 329.495 280.721 329.519 282.164C329.519 283.384 329.171 284.479 328.474 285.449C327.802 286.395 326.819 287.142 325.525 287.689C324.255 288.237 322.775 288.511 321.082 288.511Z" fill="white"/>
</svg>
