<svg width="464" height="550" viewBox="0 0 464 550" fill="none" xmlns="http://www.w3.org/2000/svg">
<rect width="464" height="550" fill="black"/>
<path opacity="0.8" fill-rule="evenodd" clip-rule="evenodd" d="M136.333 291.622C145.514 291.622 152.956 284.18 152.956 275C152.956 265.82 145.514 258.378 136.333 258.378C127.153 258.378 119.711 265.82 119.711 275C119.711 284.18 127.153 291.622 136.333 291.622ZM136.333 304.333C152.534 304.333 165.667 291.2 165.667 275C165.667 258.8 152.534 245.667 136.333 245.667C120.133 245.667 107 258.8 107 275C107 291.2 120.133 304.333 136.333 304.333Z" fill="#DAFD00"/>
<path opacity="0.6" d="M136.669 275.642C139.724 272.587 144.676 272.587 147.731 275.642L162.942 290.853C165.997 293.908 165.997 298.86 162.942 301.915C159.887 304.97 154.934 304.97 151.879 301.915L136.669 286.705C133.614 283.65 133.614 278.697 136.669 275.642Z" fill="#DAFD00"/>
<path d="M140.94 290.976L150.6 300.636C155.234 298.052 159.094 294.248 161.747 289.658L152.166 280.077C150.483 285.33 146.259 289.445 140.94 290.976Z" fill="#DAFD00"/>
<path d="M213.027 291.133C212.18 292.179 211.148 292.975 209.928 293.523C208.733 294.07 207.414 294.344 205.971 294.344C204.029 294.344 202.275 293.921 200.707 293.075C199.139 292.253 197.347 290.785 195.331 288.669C192.966 288.371 190.851 287.611 188.984 286.392C187.142 285.172 185.699 283.604 184.653 281.688C183.633 279.747 183.123 277.606 183.123 275.267C183.123 272.703 183.732 270.401 184.952 268.36C186.196 266.294 187.901 264.676 190.067 263.507C192.257 262.337 194.708 261.752 197.421 261.752C200.134 261.752 202.573 262.337 204.739 263.507C206.904 264.676 208.609 266.294 209.853 268.36C211.098 270.401 211.72 272.703 211.72 275.267C211.72 278.303 210.861 280.966 209.144 283.256C207.452 285.546 205.199 287.139 202.387 288.035C203.009 288.682 203.606 289.142 204.179 289.416C204.776 289.715 205.411 289.864 206.083 289.864C207.7 289.864 209.119 289.217 210.339 287.923L213.027 291.133ZM189.245 275.267C189.245 276.884 189.594 278.328 190.291 279.597C191.012 280.867 191.996 281.862 193.24 282.584C194.484 283.281 195.878 283.629 197.421 283.629C198.964 283.629 200.358 283.281 201.603 282.584C202.847 281.862 203.818 280.867 204.515 279.597C205.236 278.328 205.597 276.884 205.597 275.267C205.597 273.649 205.236 272.205 204.515 270.936C203.818 269.667 202.847 268.683 201.603 267.987C200.358 267.265 198.964 266.904 197.421 266.904C195.878 266.904 194.484 267.265 193.24 267.987C191.996 268.683 191.012 269.667 190.291 270.936C189.594 272.205 189.245 273.649 189.245 275.267Z" fill="white"/>
<path d="M236.089 268.248V288.333H230.564V285.944C229.792 286.815 228.872 287.487 227.801 287.96C226.731 288.408 225.574 288.632 224.329 288.632C221.691 288.632 219.6 287.873 218.057 286.355C216.514 284.836 215.743 282.584 215.743 279.597V268.248H221.567V278.739C221.567 281.974 222.923 283.592 225.636 283.592C227.03 283.592 228.15 283.144 228.996 282.248C229.842 281.327 230.265 279.971 230.265 278.179V268.248H236.089Z" fill="white"/>
<path d="M251.042 288.632C248.927 288.632 247.023 288.196 245.33 287.325C243.663 286.429 242.356 285.197 241.41 283.629C240.464 282.061 239.992 280.282 239.992 278.291C239.992 276.299 240.464 274.52 241.41 272.952C242.356 271.384 243.663 270.164 245.33 269.293C247.023 268.397 248.927 267.949 251.042 267.949C253.158 267.949 255.049 268.397 256.717 269.293C258.384 270.164 259.691 271.384 260.637 272.952C261.583 274.52 262.056 276.299 262.056 278.291C262.056 280.282 261.583 282.061 260.637 283.629C259.691 285.197 258.384 286.429 256.717 287.325C255.049 288.196 253.158 288.632 251.042 288.632ZM251.042 283.853C252.536 283.853 253.755 283.355 254.701 282.36C255.672 281.339 256.157 279.983 256.157 278.291C256.157 276.598 255.672 275.254 254.701 274.259C253.755 273.238 252.536 272.728 251.042 272.728C249.549 272.728 248.317 273.238 247.346 274.259C246.376 275.254 245.89 276.598 245.89 278.291C245.89 279.983 246.376 281.339 247.346 282.36C248.317 283.355 249.549 283.853 251.042 283.853Z" fill="white"/>
<path d="M278.903 287.363C278.331 287.786 277.621 288.109 276.775 288.333C275.954 288.532 275.083 288.632 274.162 288.632C271.772 288.632 269.918 288.022 268.599 286.803C267.305 285.583 266.658 283.791 266.658 281.427V273.176H263.559V268.696H266.658V263.805H272.482V268.696H277.484V273.176H272.482V281.352C272.482 282.198 272.693 282.858 273.116 283.331C273.564 283.779 274.187 284.003 274.983 284.003C275.904 284.003 276.688 283.754 277.335 283.256L278.903 287.363Z" fill="white"/>
<path d="M282.172 268.248H287.996V288.333H282.172V268.248ZM285.084 265.448C284.014 265.448 283.143 265.137 282.471 264.515C281.799 263.892 281.463 263.121 281.463 262.2C281.463 261.279 281.799 260.507 282.471 259.885C283.143 259.263 284.014 258.952 285.084 258.952C286.155 258.952 287.026 259.251 287.698 259.848C288.37 260.445 288.706 261.192 288.706 262.088C288.706 263.059 288.37 263.867 287.698 264.515C287.026 265.137 286.155 265.448 285.084 265.448Z" fill="white"/>
<path d="M313.076 278.365C313.076 278.44 313.039 278.963 312.964 279.933H297.77C298.043 281.178 298.69 282.161 299.711 282.883C300.731 283.604 302.001 283.965 303.519 283.965C304.564 283.965 305.485 283.816 306.282 283.517C307.103 283.194 307.862 282.696 308.559 282.024L311.658 285.384C309.766 287.549 307.003 288.632 303.37 288.632C301.105 288.632 299.101 288.196 297.359 287.325C295.617 286.429 294.273 285.197 293.327 283.629C292.381 282.061 291.908 280.282 291.908 278.291C291.908 276.324 292.369 274.557 293.29 272.989C294.235 271.396 295.517 270.164 297.135 269.293C298.778 268.397 300.607 267.949 302.623 267.949C304.589 267.949 306.369 268.372 307.962 269.219C309.554 270.065 310.799 271.284 311.695 272.877C312.616 274.445 313.076 276.275 313.076 278.365ZM302.66 272.355C301.341 272.355 300.234 272.728 299.338 273.475C298.442 274.221 297.894 275.242 297.695 276.536H307.588C307.389 275.267 306.842 274.259 305.946 273.512C305.05 272.74 303.954 272.355 302.66 272.355Z" fill="white"/>
<path d="M329.162 267.949C331.651 267.949 333.654 268.696 335.172 270.189C336.715 271.683 337.487 273.898 337.487 276.835V288.333H331.663V277.731C331.663 276.138 331.315 274.955 330.618 274.184C329.921 273.387 328.913 272.989 327.594 272.989C326.125 272.989 324.955 273.45 324.084 274.371C323.213 275.267 322.778 276.611 322.778 278.403V288.333H316.954V268.248H322.516V270.6C323.288 269.754 324.246 269.107 325.391 268.659C326.536 268.186 327.793 267.949 329.162 267.949Z" fill="white"/>
<path d="M355.721 287.363C355.148 287.786 354.439 288.109 353.593 288.333C352.771 288.532 351.9 288.632 350.979 288.632C348.59 288.632 346.736 288.022 345.417 286.803C344.123 285.583 343.475 283.791 343.475 281.427V273.176H340.377V268.696H343.475V263.805H349.299V268.696H354.302V273.176H349.299V281.352C349.299 282.198 349.511 282.858 349.934 283.331C350.382 283.779 351.004 284.003 351.801 284.003C352.722 284.003 353.506 283.754 354.153 283.256L355.721 287.363Z" fill="white"/>
</svg>
