<svg width="432" height="36" viewBox="0 0 432 36" fill="none" xmlns="http://www.w3.org/2000/svg">
<path d="M6.83984 26.2344C5.38672 26.2344 4.10156 25.8203 2.98438 24.9922C1.875 24.1562 1.19922 23.1094 0.957031 21.8516L3.06641 21.1719C3.29297 22 3.75781 22.6797 4.46094 23.2109C5.16406 23.7422 5.95703 24.0078 6.83984 24.0078C7.79297 24.0078 8.59375 23.6836 9.24219 23.0352C9.89062 22.3867 10.2148 21.5898 10.2148 20.6445C10.2148 19.6602 9.89062 18.8398 9.24219 18.1836C8.60156 17.5195 7.80078 17.1875 6.83984 17.1875C6.25391 17.1875 5.69922 17.2891 5.17578 17.4922C4.66016 17.6875 4.24609 17.957 3.93359 18.3008L1.94141 17.8672L2.67969 9.19531H11.5391V11.3867H4.74219L4.29688 16.0156C4.61719 15.75 5.03516 15.5391 5.55078 15.3828C6.06641 15.2266 6.58984 15.1484 7.12109 15.1484C8.69141 15.1484 9.99609 15.668 11.0352 16.707C12.0742 17.7383 12.5938 19.0664 12.5938 20.6914C12.5938 21.4492 12.4414 22.1719 12.1367 22.8594C11.8398 23.5469 11.4336 24.1367 10.918 24.6289C10.4102 25.1211 9.80078 25.5117 9.08984 25.8008C8.37891 26.0898 7.62891 26.2344 6.83984 26.2344ZM16.3906 26.2344C15.9219 26.2344 15.5312 26.082 15.2188 25.7773C14.9141 25.4727 14.7617 25.0898 14.7617 24.6289C14.7617 24.1836 14.9141 23.8047 15.2188 23.4922C15.5312 23.1797 15.9219 23.0234 16.3906 23.0234C16.8438 23.0234 17.2266 23.1797 17.5391 23.4922C17.8594 23.8047 18.0195 24.1836 18.0195 24.6289C18.0195 25.082 17.8633 25.4648 17.5508 25.7773C17.2383 26.082 16.8516 26.2344 16.3906 26.2344ZM26.5859 26.2344C24.6406 26.2344 23.1172 25.4609 22.0156 23.9141C20.9219 22.3672 20.375 20.2617 20.375 17.5977C20.375 14.9336 20.9219 12.8281 22.0156 11.2812C23.1172 9.73438 24.6406 8.96094 26.5859 8.96094C28.5234 8.96094 30.0391 9.73828 31.1328 11.293C32.2344 12.8398 32.7852 14.9414 32.7852 17.5977C32.7852 20.2539 32.2344 22.3594 31.1328 23.9141C30.0391 25.4609 28.5234 26.2344 26.5859 26.2344ZM26.5859 24.0078C27.7969 24.0078 28.7344 23.4609 29.3984 22.3672C30.0703 21.2656 30.4062 19.6758 30.4062 17.5977C30.4062 15.5195 30.0703 13.9336 29.3984 12.8398C28.7344 11.7383 27.7969 11.1875 26.5859 11.1875C25.3594 11.1875 24.4141 11.7383 23.75 12.8398C23.0859 13.9336 22.7539 15.5195 22.7539 17.5977C22.7539 19.6758 23.0859 21.2656 23.75 22.3672C24.4141 23.4609 25.3594 24.0078 26.5859 24.0078ZM157.039 10.7891C156.367 10.7891 155.816 11.0039 155.387 11.4336C154.957 11.8633 154.742 12.4531 154.742 13.2031V14.293H157.906V16.4023H154.742V26H152.527V16.4023H150.254V14.293H152.527V13.1094C152.527 11.7422 152.914 10.668 153.688 9.88672C154.469 9.10547 155.492 8.71484 156.758 8.71484C157.203 8.71484 157.625 8.79688 158.023 8.96094L157.906 10.9062C157.648 10.8281 157.359 10.7891 157.039 10.7891ZM165.336 14.0469C165.742 14.0469 166.172 14.1094 166.625 14.2344L166.508 16.332C166.102 16.1836 165.66 16.1094 165.184 16.1094C164.676 16.1094 164.145 16.3008 163.59 16.6836C163.043 17.0586 162.602 17.5625 162.266 18.1953V26H160.027V14.293H162.266V15.9922C162.586 15.4141 163.035 14.9453 163.613 14.5859C164.191 14.2266 164.766 14.0469 165.336 14.0469ZM173.188 14.0469C174.305 14.0469 175.324 14.3164 176.246 14.8555C177.168 15.3867 177.895 16.1211 178.426 17.0586C178.965 17.9961 179.234 19.0312 179.234 20.1641C179.234 21.875 178.648 23.3164 177.477 24.4883C176.312 25.6523 174.883 26.2344 173.188 26.2344C172.07 26.2344 171.047 25.9688 170.117 25.4375C169.195 24.9062 168.469 24.1758 167.938 23.2461C167.406 22.3164 167.141 21.2891 167.141 20.1641C167.141 18.4375 167.723 16.9883 168.887 15.8164C170.051 14.6367 171.484 14.0469 173.188 14.0469ZM173.188 16.1562C172.086 16.1562 171.16 16.5391 170.41 17.3047C169.668 18.0703 169.297 19.0234 169.297 20.1641C169.297 21.2812 169.668 22.2227 170.41 22.9883C171.16 23.7461 172.086 24.125 173.188 24.125C174.281 24.125 175.203 23.7422 175.953 22.9766C176.703 22.2109 177.078 21.2734 177.078 20.1641C177.078 19.0234 176.703 18.0703 175.953 17.3047C175.203 16.5391 174.281 16.1562 173.188 16.1562ZM195.289 14.0469C196.727 14.0469 197.883 14.4883 198.758 15.3711C199.633 16.2539 200.07 17.4375 200.07 18.9219V26H197.855V19.3086C197.855 18.3242 197.594 17.5469 197.07 16.9766C196.547 16.3984 195.836 16.1094 194.938 16.1094C194.344 16.1094 193.762 16.2891 193.191 16.6484C192.629 17 192.191 17.4375 191.879 17.9609C191.926 18.1562 191.961 18.3867 191.984 18.6523V26H189.77V19.3086C189.77 18.332 189.504 17.5547 188.973 16.9766C188.449 16.3984 187.754 16.1094 186.887 16.1094C186.238 16.1094 185.652 16.2773 185.129 16.6133C184.605 16.9414 184.203 17.3828 183.922 17.9375V26H181.684V14.293H183.922V15.9453C184.273 15.4297 184.754 14.9844 185.363 14.6094C185.98 14.2344 186.723 14.0469 187.59 14.0469C189.332 14.0469 190.57 14.7422 191.305 16.1328C191.75 15.5391 192.316 15.043 193.004 14.6445C193.699 14.2461 194.461 14.0469 195.289 14.0469ZM214.367 26.2344C212.422 26.2344 210.898 25.4609 209.797 23.9141C208.703 22.3672 208.156 20.2617 208.156 17.5977C208.156 14.9336 208.703 12.8281 209.797 11.2812C210.898 9.73438 212.422 8.96094 214.367 8.96094C216.305 8.96094 217.82 9.73828 218.914 11.293C220.016 12.8398 220.566 14.9414 220.566 17.5977C220.566 20.2539 220.016 22.3594 218.914 23.9141C217.82 25.4609 216.305 26.2344 214.367 26.2344ZM214.367 24.0078C215.578 24.0078 216.516 23.4609 217.18 22.3672C217.852 21.2656 218.188 19.6758 218.188 17.5977C218.188 15.5195 217.852 13.9336 217.18 12.8398C216.516 11.7383 215.578 11.1875 214.367 11.1875C213.141 11.1875 212.195 11.7383 211.531 12.8398C210.867 13.9336 210.535 15.5195 210.535 17.5977C210.535 19.6758 210.867 21.2656 211.531 22.3672C212.195 23.4609 213.141 24.0078 214.367 24.0078ZM228.383 15.0547C229.344 15.0547 230.238 15.293 231.066 15.7695C231.895 16.2461 232.555 16.9102 233.047 17.7617C233.547 18.6133 233.797 19.5508 233.797 20.5742C233.797 21.5977 233.539 22.543 233.023 23.4102C232.508 24.2773 231.809 24.9648 230.926 25.4727C230.043 25.9805 229.082 26.2344 228.043 26.2344C226.996 26.2344 226.031 25.9805 225.148 25.4727C224.266 24.9648 223.566 24.2773 223.051 23.4102C222.535 22.543 222.277 21.5977 222.277 20.5742C222.277 19.9805 222.395 19.3203 222.629 18.5938C222.863 17.8594 223.203 17.1367 223.648 16.4258L228.137 9.19531H230.773L226.941 15.2422C227.457 15.1172 227.938 15.0547 228.383 15.0547ZM225.535 23.0117C226.223 23.6914 227.059 24.0312 228.043 24.0312C229.027 24.0312 229.859 23.6914 230.539 23.0117C231.227 22.332 231.57 21.5117 231.57 20.5508C231.57 19.6055 231.219 18.7852 230.516 18.0898C229.812 17.3945 228.98 17.0469 228.02 17.0469C227.082 17.0469 226.242 17.2148 225.5 17.5508C224.844 18.6914 224.516 19.6914 224.516 20.5508C224.516 21.5117 224.855 22.332 225.535 23.0117ZM246.805 14.0469C247.211 14.0469 247.641 14.1094 248.094 14.2344L247.977 16.332C247.57 16.1836 247.129 16.1094 246.652 16.1094C246.145 16.1094 245.613 16.3008 245.059 16.6836C244.512 17.0586 244.07 17.5625 243.734 18.1953V26H241.496V14.293H243.734V15.9922C244.055 15.4141 244.504 14.9453 245.082 14.5859C245.66 14.2266 246.234 14.0469 246.805 14.0469ZM260.176 19.6367C260.176 19.8555 260.16 20.1602 260.129 20.5508H250.766C250.867 21.6758 251.273 22.5742 251.984 23.2461C252.703 23.9102 253.602 24.2422 254.68 24.2422C255.422 24.2422 256.102 24.0859 256.719 23.7734C257.336 23.4609 257.793 23.043 258.09 22.5195L259.859 23.668C259.414 24.4648 258.727 25.0938 257.797 25.5547C256.867 26.0078 255.805 26.2344 254.609 26.2344C253.789 26.2344 253.008 26.0781 252.266 25.7656C251.523 25.4531 250.883 25.0273 250.344 24.4883C249.812 23.9414 249.391 23.2891 249.078 22.5312C248.766 21.7656 248.609 20.9531 248.609 20.0938C248.609 18.9844 248.871 17.9688 249.395 17.0469C249.918 16.1172 250.637 15.3867 251.551 14.8555C252.473 14.3164 253.484 14.0469 254.586 14.0469C256.156 14.0469 257.48 14.5859 258.559 15.6641C259.637 16.7422 260.176 18.0664 260.176 19.6367ZM250.859 18.875H257.891C257.82 18 257.469 17.2852 256.836 16.7305C256.203 16.1758 255.422 15.8984 254.492 15.8984C253.57 15.8984 252.785 16.168 252.137 16.707C251.488 17.2461 251.062 17.9688 250.859 18.875ZM272.609 14.293L267.664 26H265.754L260.809 14.293H263.211L266.715 23.1172L270.184 14.293H272.609ZM275.645 9.03125C276.043 9.03125 276.391 9.17969 276.688 9.47656C276.984 9.77344 277.133 10.1211 277.133 10.5195C277.133 10.9258 276.984 11.2773 276.688 11.5742C276.391 11.8633 276.043 12.0078 275.645 12.0078C275.23 12.0078 274.879 11.8633 274.59 11.5742C274.301 11.2852 274.156 10.9336 274.156 10.5195C274.156 10.1211 274.301 9.77344 274.59 9.47656C274.887 9.17969 275.238 9.03125 275.645 9.03125ZM274.52 14.293H276.758V26H274.52V14.293ZM290.762 19.6367C290.762 19.8555 290.746 20.1602 290.715 20.5508H281.352C281.453 21.6758 281.859 22.5742 282.57 23.2461C283.289 23.9102 284.188 24.2422 285.266 24.2422C286.008 24.2422 286.688 24.0859 287.305 23.7734C287.922 23.4609 288.379 23.043 288.676 22.5195L290.445 23.668C290 24.4648 289.312 25.0938 288.383 25.5547C287.453 26.0078 286.391 26.2344 285.195 26.2344C284.375 26.2344 283.594 26.0781 282.852 25.7656C282.109 25.4531 281.469 25.0273 280.93 24.4883C280.398 23.9414 279.977 23.2891 279.664 22.5312C279.352 21.7656 279.195 20.9531 279.195 20.0938C279.195 18.9844 279.457 17.9688 279.98 17.0469C280.504 16.1172 281.223 15.3867 282.137 14.8555C283.059 14.3164 284.07 14.0469 285.172 14.0469C286.742 14.0469 288.066 14.5859 289.145 15.6641C290.223 16.7422 290.762 18.0664 290.762 19.6367ZM281.445 18.875H288.477C288.406 18 288.055 17.2852 287.422 16.7305C286.789 16.1758 286.008 15.8984 285.078 15.8984C284.156 15.8984 283.371 16.168 282.723 16.707C282.074 17.2461 281.648 17.9688 281.445 18.875ZM295.801 26L291.559 14.293H293.902L296.715 22.6602L299.691 14.293H301.543L304.566 22.6602L307.344 14.293H309.723L305.457 26H303.676L300.629 17.5977L297.559 26H295.801ZM315.301 26.2344C314.387 26.2344 313.484 26.082 312.594 25.7773C311.711 25.4727 310.988 25.0664 310.426 24.5586L311.34 22.9062C311.793 23.3438 312.391 23.7031 313.133 23.9844C313.875 24.2578 314.59 24.3945 315.277 24.3945C315.949 24.3945 316.496 24.2461 316.918 23.9492C317.348 23.6445 317.562 23.2656 317.562 22.8125C317.562 22.4609 317.438 22.168 317.188 21.9336C316.938 21.6992 316.613 21.5195 316.215 21.3945C315.816 21.2617 315.375 21.1445 314.891 21.043C314.414 20.9336 313.934 20.8047 313.449 20.6562C312.973 20.5 312.535 20.3125 312.137 20.0938C311.738 19.8672 311.414 19.5469 311.164 19.1328C310.914 18.7109 310.789 18.207 310.789 17.6211C310.789 16.5586 311.199 15.6992 312.02 15.043C312.84 14.3789 313.91 14.0469 315.23 14.0469C316.051 14.0469 316.84 14.1758 317.598 14.4336C318.363 14.6914 318.992 15.0586 319.484 15.5352L318.523 17.2109C318.117 16.8125 317.574 16.5 316.895 16.2734C316.215 16.0391 315.59 15.9219 315.02 15.9219C314.41 15.9219 313.922 16.0625 313.555 16.3438C313.188 16.6172 313.004 16.9805 313.004 17.4336C313.004 17.7539 313.129 18.0234 313.379 18.2422C313.629 18.4531 313.953 18.625 314.352 18.7578C314.75 18.8828 315.188 19.0039 315.664 19.1211C316.148 19.2305 316.633 19.3711 317.117 19.543C317.602 19.707 318.043 19.9102 318.441 20.1523C318.84 20.3945 319.164 20.7344 319.414 21.1719C319.664 21.6094 319.789 22.1289 319.789 22.7305C319.789 23.7461 319.371 24.5859 318.535 25.25C317.699 25.9062 316.621 26.2344 315.301 26.2344ZM333.172 14.0469C334.289 14.0469 335.309 14.3164 336.23 14.8555C337.152 15.3867 337.879 16.1211 338.41 17.0586C338.949 17.9961 339.219 19.0312 339.219 20.1641C339.219 21.875 338.633 23.3164 337.461 24.4883C336.297 25.6523 334.867 26.2344 333.172 26.2344C332.055 26.2344 331.031 25.9688 330.102 25.4375C329.18 24.9062 328.453 24.1758 327.922 23.2461C327.391 22.3164 327.125 21.2891 327.125 20.1641C327.125 18.4375 327.707 16.9883 328.871 15.8164C330.035 14.6367 331.469 14.0469 333.172 14.0469ZM333.172 16.1562C332.07 16.1562 331.145 16.5391 330.395 17.3047C329.652 18.0703 329.281 19.0234 329.281 20.1641C329.281 21.2812 329.652 22.2227 330.395 22.9883C331.145 23.7461 332.07 24.125 333.172 24.125C334.266 24.125 335.188 23.7422 335.938 22.9766C336.688 22.2109 337.062 21.2734 337.062 20.1641C337.062 19.0234 336.688 18.0703 335.938 17.3047C335.188 16.5391 334.266 16.1562 333.172 16.1562ZM347.715 14.0469C349.176 14.0469 350.34 14.5273 351.207 15.4883C352.082 16.4414 352.52 17.7148 352.52 19.3086V26H350.305V19.6133C350.305 18.582 350.023 17.7617 349.461 17.1523C348.898 16.5352 348.148 16.2266 347.211 16.2266C346.531 16.2266 345.891 16.3984 345.289 16.7422C344.688 17.0781 344.227 17.5312 343.906 18.1016V26H341.668V14.293H343.906V15.9922C344.266 15.4062 344.793 14.9375 345.488 14.5859C346.184 14.2266 346.926 14.0469 347.715 14.0469Z" fill="#5A5A5A"/>
<path d="M376.332 21.8047C375.871 23.125 374.977 24.1953 373.648 25.0156C372.32 25.8281 370.809 26.2344 369.113 26.2344C367.918 26.2344 366.797 26.0117 365.75 25.5664C364.711 25.1211 363.82 24.5156 363.078 23.75C362.336 22.9766 361.75 22.0547 361.32 20.9844C360.898 19.9062 360.688 18.7617 360.688 17.5508C360.688 16.5898 360.82 15.6719 361.086 14.7969C361.359 13.9219 361.75 13.1328 362.258 12.4297C362.766 11.7266 363.359 11.1133 364.039 10.5898C364.727 10.0664 365.504 9.66406 366.371 9.38281C367.246 9.10156 368.16 8.96094 369.113 8.96094C370.73 8.96094 372.184 9.33594 373.473 10.0859C374.77 10.8359 375.66 11.8125 376.145 13.0156L374.082 14.0234C373.684 13.1641 373.035 12.4766 372.137 11.9609C371.246 11.4453 370.238 11.1875 369.113 11.1875C367.941 11.1875 366.895 11.4648 365.973 12.0195C365.051 12.5742 364.336 13.3359 363.828 14.3047C363.32 15.2734 363.066 16.3555 363.066 17.5508C363.066 19.4102 363.629 20.9531 364.754 22.1797C365.887 23.3984 367.34 24.0078 369.113 24.0078C370.301 24.0078 371.359 23.7227 372.289 23.1523C373.227 22.5742 373.879 21.8047 374.246 20.8438L376.332 21.8047ZM381.031 9.19531V26H378.793V9.19531H381.031ZM392.727 14.293H394.941V26H392.727V24.3008C392.367 24.8867 391.84 25.3555 391.145 25.707C390.449 26.0586 389.699 26.2344 388.895 26.2344C387.441 26.2344 386.277 25.7578 385.402 24.8047C384.527 23.8516 384.09 22.5859 384.09 21.0078V14.293H386.328V20.668C386.328 21.6992 386.605 22.5234 387.16 23.1406C387.723 23.75 388.469 24.0547 389.398 24.0547C390.086 24.0547 390.73 23.8867 391.332 23.5508C391.941 23.207 392.406 22.75 392.727 22.1797V14.293ZM404.469 23.9609L404.586 25.9062C404.211 26.0625 403.789 26.1406 403.32 26.1406C402.055 26.1406 401.031 25.7578 400.25 24.9922C399.477 24.2188 399.09 23.1484 399.09 21.7812V16.4023H396.816V14.293H399.09V11.1172H401.305V14.293H404.469V16.4023H401.305V21.6758C401.305 22.418 401.52 23.0039 401.949 23.4336C402.379 23.8633 402.93 24.0781 403.602 24.0781C403.922 24.0781 404.211 24.0391 404.469 23.9609ZM416.926 23.1172C416.465 24.0703 415.758 24.8281 414.805 25.3906C413.859 25.9531 412.789 26.2344 411.594 26.2344C410.469 26.2344 409.441 25.9688 408.512 25.4375C407.582 24.9062 406.852 24.1758 406.32 23.2461C405.789 22.3164 405.523 21.2891 405.523 20.1641C405.523 19.0312 405.789 17.9961 406.32 17.0586C406.852 16.1211 407.582 15.3867 408.512 14.8555C409.441 14.3164 410.469 14.0469 411.594 14.0469C412.719 14.0469 413.727 14.3086 414.617 14.832C415.516 15.3477 416.172 16.0391 416.586 16.9062L414.688 17.9375C414.445 17.3984 414.043 16.9688 413.48 16.6484C412.926 16.3203 412.297 16.1562 411.594 16.1562C410.484 16.1562 409.555 16.543 408.805 17.3164C408.055 18.082 407.68 19.0312 407.68 20.1641C407.68 21.2812 408.055 22.2227 408.805 22.9883C409.555 23.7461 410.484 24.125 411.594 24.125C412.352 24.125 413.031 23.957 413.633 23.6211C414.234 23.2852 414.684 22.8203 414.98 22.2266L416.926 23.1172ZM425.105 14.0469C426.559 14.0469 427.723 14.5273 428.598 15.4883C429.473 16.4414 429.91 17.7148 429.91 19.3086V26H427.695V19.6133C427.695 18.5898 427.41 17.7695 426.84 17.1523C426.277 16.5352 425.531 16.2266 424.602 16.2266C423.922 16.2266 423.289 16.3945 422.703 16.7305C422.117 17.0586 421.648 17.5078 421.297 18.0781V26H419.059V9.19531H421.297V15.9688C421.688 15.3906 422.223 14.9258 422.902 14.5742C423.59 14.2227 424.324 14.0469 425.105 14.0469Z" fill="black"/>
<path d="M51.5 18.3275L56.135 21.125L54.905 15.8525L59 12.305L53.6075 11.8475L51.5 6.875L49.3925 11.8475L44 12.305L48.095 15.8525L46.865 21.125L51.5 18.3275Z" fill="#FFBD0D"/>
<path d="M72.5 18.3275L77.135 21.125L75.905 15.8525L80 12.305L74.6075 11.8475L72.5 6.875L70.3925 11.8475L65 12.305L69.095 15.8525L67.865 21.125L72.5 18.3275Z" fill="#FFBD0D"/>
<path d="M93.5 18.3275L98.135 21.125L96.905 15.8525L101 12.305L95.6075 11.8475L93.5 6.875L91.3925 11.8475L86 12.305L90.095 15.8525L88.865 21.125L93.5 18.3275Z" fill="#FFBD0D"/>
<path d="M114.5 18.3275L119.135 21.125L117.905 15.8525L122 12.305L116.608 11.8475L114.5 6.875L112.392 11.8475L107 12.305L111.095 15.8525L109.865 21.125L114.5 18.3275Z" fill="#FFBD0D"/>
<path d="M135.5 18.3275L140.135 21.125L138.905 15.8525L143 12.305L137.608 11.8475L135.5 6.875L133.392 11.8475L128 12.305L132.095 15.8525L130.865 21.125L135.5 18.3275Z" fill="#FFBD0D"/>
</svg>
