<svg width="404" height="36" viewBox="0 0 404 36" fill="none" xmlns="http://www.w3.org/2000/svg">
<path d="M6.83984 26.2344C5.38672 26.2344 4.10156 25.8203 2.98438 24.9922C1.875 24.1562 1.19922 23.1094 0.957031 21.8516L3.06641 21.1719C3.29297 22 3.75781 22.6797 4.46094 23.2109C5.16406 23.7422 5.95703 24.0078 6.83984 24.0078C7.79297 24.0078 8.59375 23.6836 9.24219 23.0352C9.89062 22.3867 10.2148 21.5898 10.2148 20.6445C10.2148 19.6602 9.89062 18.8398 9.24219 18.1836C8.60156 17.5195 7.80078 17.1875 6.83984 17.1875C6.25391 17.1875 5.69922 17.2891 5.17578 17.4922C4.66016 17.6875 4.24609 17.957 3.93359 18.3008L1.94141 17.8672L2.67969 9.19531H11.5391V11.3867H4.74219L4.29688 16.0156C4.61719 15.75 5.03516 15.5391 5.55078 15.3828C6.06641 15.2266 6.58984 15.1484 7.12109 15.1484C8.69141 15.1484 9.99609 15.668 11.0352 16.707C12.0742 17.7383 12.5938 19.0664 12.5938 20.6914C12.5938 21.4492 12.4414 22.1719 12.1367 22.8594C11.8398 23.5469 11.4336 24.1367 10.918 24.6289C10.4102 25.1211 9.80078 25.5117 9.08984 25.8008C8.37891 26.0898 7.62891 26.2344 6.83984 26.2344ZM16.3906 26.2344C15.9219 26.2344 15.5312 26.082 15.2188 25.7773C14.9141 25.4727 14.7617 25.0898 14.7617 24.6289C14.7617 24.1836 14.9141 23.8047 15.2188 23.4922C15.5312 23.1797 15.9219 23.0234 16.3906 23.0234C16.8438 23.0234 17.2266 23.1797 17.5391 23.4922C17.8594 23.8047 18.0195 24.1836 18.0195 24.6289C18.0195 25.082 17.8633 25.4648 17.5508 25.7773C17.2383 26.082 16.8516 26.2344 16.3906 26.2344ZM26.5859 26.2344C24.6406 26.2344 23.1172 25.4609 22.0156 23.9141C20.9219 22.3672 20.375 20.2617 20.375 17.5977C20.375 14.9336 20.9219 12.8281 22.0156 11.2812C23.1172 9.73438 24.6406 8.96094 26.5859 8.96094C28.5234 8.96094 30.0391 9.73828 31.1328 11.293C32.2344 12.8398 32.7852 14.9414 32.7852 17.5977C32.7852 20.2539 32.2344 22.3594 31.1328 23.9141C30.0391 25.4609 28.5234 26.2344 26.5859 26.2344ZM26.5859 24.0078C27.7969 24.0078 28.7344 23.4609 29.3984 22.3672C30.0703 21.2656 30.4062 19.6758 30.4062 17.5977C30.4062 15.5195 30.0703 13.9336 29.3984 12.8398C28.7344 11.7383 27.7969 11.1875 26.5859 11.1875C25.3594 11.1875 24.4141 11.7383 23.75 12.8398C23.0859 13.9336 22.7539 15.5195 22.7539 17.5977C22.7539 19.6758 23.0859 21.2656 23.75 22.3672C24.4141 23.4609 25.3594 24.0078 26.5859 24.0078ZM169.602 26H166.824L162.359 19.0156H159.5V26H157.168V9.19531H163.367C164.781 9.19531 165.977 9.66406 166.953 10.6016C167.938 11.5391 168.43 12.6953 168.43 14.0703C168.43 15.2812 168.109 16.3125 167.469 17.1641C166.828 18.0078 165.965 18.5703 164.879 18.8516L169.602 26ZM159.477 11.4102L159.5 16.8125H163.32C164.125 16.8125 164.789 16.5547 165.312 16.0391C165.836 15.5156 166.098 14.8594 166.098 14.0703C166.098 13.3047 165.836 12.6719 165.312 12.1719C164.789 11.6641 164.125 11.4102 163.32 11.4102H159.477ZM179.645 14.293H181.883V26H179.645V24.3008C179.316 24.8555 178.785 25.3164 178.051 25.6836C177.316 26.0508 176.543 26.2344 175.73 26.2344C174.668 26.2344 173.699 25.9688 172.824 25.4375C171.949 24.8984 171.262 24.1641 170.762 23.2344C170.27 22.2969 170.023 21.2656 170.023 20.1406C170.023 19.0156 170.27 17.9883 170.762 17.0586C171.262 16.1211 171.949 15.3867 172.824 14.8555C173.699 14.3164 174.668 14.0469 175.73 14.0469C176.551 14.0469 177.328 14.2344 178.062 14.6094C178.805 14.9766 179.332 15.4375 179.645 15.9922V14.293ZM176.164 24.1484C176.883 24.1484 177.562 23.9688 178.203 23.6094C178.852 23.2422 179.332 22.7734 179.645 22.2031V18.1016C179.332 17.5234 178.852 17.0508 178.203 16.6836C177.562 16.3164 176.883 16.1328 176.164 16.1328C175.031 16.1328 174.082 16.5156 173.316 17.2812C172.559 18.0391 172.18 18.9922 172.18 20.1406C172.18 21.2812 172.559 22.2344 173.316 23C174.082 23.7656 175.031 24.1484 176.164 24.1484ZM191.375 23.9609L191.492 25.9062C191.117 26.0625 190.695 26.1406 190.227 26.1406C188.961 26.1406 187.938 25.7578 187.156 24.9922C186.383 24.2188 185.996 23.1484 185.996 21.7812V16.4023H183.723V14.293H185.996V11.1172H188.211V14.293H191.375V16.4023H188.211V21.6758C188.211 22.418 188.426 23.0039 188.855 23.4336C189.285 23.8633 189.836 24.0781 190.508 24.0781C190.828 24.0781 191.117 24.0391 191.375 23.9609ZM194.879 9.03125C195.277 9.03125 195.625 9.17969 195.922 9.47656C196.219 9.77344 196.367 10.1211 196.367 10.5195C196.367 10.9258 196.219 11.2773 195.922 11.5742C195.625 11.8633 195.277 12.0078 194.879 12.0078C194.465 12.0078 194.113 11.8633 193.824 11.5742C193.535 11.2852 193.391 10.9336 193.391 10.5195C193.391 10.1211 193.535 9.77344 193.824 9.47656C194.121 9.17969 194.473 9.03125 194.879 9.03125ZM193.754 14.293H195.992V26H193.754V14.293ZM205.098 14.0469C206.559 14.0469 207.723 14.5273 208.59 15.4883C209.465 16.4414 209.902 17.7148 209.902 19.3086V26H207.688V19.6133C207.688 18.582 207.406 17.7617 206.844 17.1523C206.281 16.5352 205.531 16.2266 204.594 16.2266C203.914 16.2266 203.273 16.3984 202.672 16.7422C202.07 17.0781 201.609 17.5312 201.289 18.1016V26H199.051V14.293H201.289V15.9922C201.648 15.4062 202.176 14.9375 202.871 14.5859C203.566 14.2266 204.309 14.0469 205.098 14.0469ZM221.996 14.293H224.234V25.5898C224.234 27.1836 223.699 28.4688 222.629 29.4453C221.559 30.4297 220.188 30.9219 218.516 30.9219C217.461 30.9219 216.449 30.7422 215.48 30.3828C214.512 30.0234 213.781 29.5391 213.289 28.9297L214.414 27.418C214.859 27.8945 215.438 28.2656 216.148 28.5312C216.867 28.7969 217.641 28.9297 218.469 28.9297C219.484 28.9297 220.324 28.6133 220.988 27.9805C221.66 27.3477 221.996 26.543 221.996 25.5664V24.125C221.668 24.6719 221.133 25.125 220.391 25.4844C219.656 25.8438 218.887 26.0234 218.082 26.0234C217.02 26.0234 216.051 25.7617 215.176 25.2383C214.301 24.707 213.613 23.9844 213.113 23.0703C212.621 22.1484 212.375 21.1328 212.375 20.0234C212.375 19.1953 212.52 18.4141 212.809 17.6797C213.105 16.9375 213.504 16.3008 214.004 15.7695C214.512 15.2383 215.117 14.8203 215.82 14.5156C216.531 14.2031 217.285 14.0469 218.082 14.0469C218.902 14.0469 219.68 14.2305 220.414 14.5977C221.156 14.957 221.684 15.4141 221.996 15.9688V14.293ZM218.516 23.9609C219.234 23.9609 219.914 23.7852 220.555 23.4336C221.203 23.0742 221.684 22.6172 221.996 22.0625V18.0312C221.684 17.4688 221.203 17.0078 220.555 16.6484C219.914 16.2891 219.234 16.1094 218.516 16.1094C217.383 16.1094 216.434 16.4805 215.668 17.2227C214.91 17.9648 214.531 18.8984 214.531 20.0234C214.531 21.1484 214.91 22.0859 215.668 22.8359C216.434 23.5859 217.383 23.9609 218.516 23.9609ZM231.371 26.2344C230.457 26.2344 229.555 26.082 228.664 25.7773C227.781 25.4727 227.059 25.0664 226.496 24.5586L227.41 22.9062C227.863 23.3438 228.461 23.7031 229.203 23.9844C229.945 24.2578 230.66 24.3945 231.348 24.3945C232.02 24.3945 232.566 24.2461 232.988 23.9492C233.418 23.6445 233.633 23.2656 233.633 22.8125C233.633 22.4609 233.508 22.168 233.258 21.9336C233.008 21.6992 232.684 21.5195 232.285 21.3945C231.887 21.2617 231.445 21.1445 230.961 21.043C230.484 20.9336 230.004 20.8047 229.52 20.6562C229.043 20.5 228.605 20.3125 228.207 20.0938C227.809 19.8672 227.484 19.5469 227.234 19.1328C226.984 18.7109 226.859 18.207 226.859 17.6211C226.859 16.5586 227.27 15.6992 228.09 15.043C228.91 14.3789 229.98 14.0469 231.301 14.0469C232.121 14.0469 232.91 14.1758 233.668 14.4336C234.434 14.6914 235.062 15.0586 235.555 15.5352L234.594 17.2109C234.188 16.8125 233.645 16.5 232.965 16.2734C232.285 16.0391 231.66 15.9219 231.09 15.9219C230.48 15.9219 229.992 16.0625 229.625 16.3438C229.258 16.6172 229.074 16.9805 229.074 17.4336C229.074 17.7539 229.199 18.0234 229.449 18.2422C229.699 18.4531 230.023 18.625 230.422 18.7578C230.82 18.8828 231.258 19.0039 231.734 19.1211C232.219 19.2305 232.703 19.3711 233.188 19.543C233.672 19.707 234.113 19.9102 234.512 20.1523C234.91 20.3945 235.234 20.7344 235.484 21.1719C235.734 21.6094 235.859 22.1289 235.859 22.7305C235.859 23.7461 235.441 24.5859 234.605 25.25C233.77 25.9062 232.691 26.2344 231.371 26.2344ZM243.98 9.19531H253.637V11.4102H246.312V16.2852H252.84V18.4883H246.312V26H243.98V9.19531ZM260.82 14.0469C261.227 14.0469 261.656 14.1094 262.109 14.2344L261.992 16.332C261.586 16.1836 261.145 16.1094 260.668 16.1094C260.16 16.1094 259.629 16.3008 259.074 16.6836C258.527 17.0586 258.086 17.5625 257.75 18.1953V26H255.512V14.293H257.75V15.9922C258.07 15.4141 258.52 14.9453 259.098 14.5859C259.676 14.2266 260.25 14.0469 260.82 14.0469ZM268.672 14.0469C269.789 14.0469 270.809 14.3164 271.73 14.8555C272.652 15.3867 273.379 16.1211 273.91 17.0586C274.449 17.9961 274.719 19.0312 274.719 20.1641C274.719 21.875 274.133 23.3164 272.961 24.4883C271.797 25.6523 270.367 26.2344 268.672 26.2344C267.555 26.2344 266.531 25.9688 265.602 25.4375C264.68 24.9062 263.953 24.1758 263.422 23.2461C262.891 22.3164 262.625 21.2891 262.625 20.1641C262.625 18.4375 263.207 16.9883 264.371 15.8164C265.535 14.6367 266.969 14.0469 268.672 14.0469ZM268.672 16.1562C267.57 16.1562 266.645 16.5391 265.895 17.3047C265.152 18.0703 264.781 19.0234 264.781 20.1641C264.781 21.2812 265.152 22.2227 265.895 22.9883C266.645 23.7461 267.57 24.125 268.672 24.125C269.766 24.125 270.688 23.7422 271.438 22.9766C272.188 22.2109 272.562 21.2734 272.562 20.1641C272.562 19.0234 272.188 18.0703 271.438 17.3047C270.688 16.5391 269.766 16.1562 268.672 16.1562ZM290.773 14.0469C292.211 14.0469 293.367 14.4883 294.242 15.3711C295.117 16.2539 295.555 17.4375 295.555 18.9219V26H293.34V19.3086C293.34 18.3242 293.078 17.5469 292.555 16.9766C292.031 16.3984 291.32 16.1094 290.422 16.1094C289.828 16.1094 289.246 16.2891 288.676 16.6484C288.113 17 287.676 17.4375 287.363 17.9609C287.41 18.1562 287.445 18.3867 287.469 18.6523V26H285.254V19.3086C285.254 18.332 284.988 17.5547 284.457 16.9766C283.934 16.3984 283.238 16.1094 282.371 16.1094C281.723 16.1094 281.137 16.2773 280.613 16.6133C280.09 16.9414 279.688 17.3828 279.406 17.9375V26H277.168V14.293H279.406V15.9453C279.758 15.4297 280.238 14.9844 280.848 14.6094C281.465 14.2344 282.207 14.0469 283.074 14.0469C284.816 14.0469 286.055 14.7422 286.789 16.1328C287.234 15.5391 287.801 15.043 288.488 14.6445C289.184 14.2461 289.945 14.0469 290.773 14.0469ZM313.168 14.293H315.406V26H313.168V24.3008C312.84 24.8555 312.309 25.3164 311.574 25.6836C310.84 26.0508 310.066 26.2344 309.254 26.2344C308.191 26.2344 307.223 25.9688 306.348 25.4375C305.473 24.8984 304.785 24.1641 304.285 23.2344C303.793 22.2969 303.547 21.2656 303.547 20.1406C303.547 19.0156 303.793 17.9883 304.285 17.0586C304.785 16.1211 305.473 15.3867 306.348 14.8555C307.223 14.3164 308.191 14.0469 309.254 14.0469C310.074 14.0469 310.852 14.2344 311.586 14.6094C312.328 14.9766 312.855 15.4375 313.168 15.9922V14.293ZM309.688 24.1484C310.406 24.1484 311.086 23.9688 311.727 23.6094C312.375 23.2422 312.855 22.7734 313.168 22.2031V18.1016C312.855 17.5234 312.375 17.0508 311.727 16.6836C311.086 16.3164 310.406 16.1328 309.688 16.1328C308.555 16.1328 307.605 16.5156 306.84 17.2812C306.082 18.0391 305.703 18.9922 305.703 20.1406C305.703 21.2812 306.082 22.2344 306.84 23C307.605 23.7656 308.555 24.1484 309.688 24.1484ZM320.703 9.19531V26H318.465V9.19531H320.703ZM326 9.19531V26H323.762V9.19531H326ZM345.371 23.1172C344.91 24.0703 344.203 24.8281 343.25 25.3906C342.305 25.9531 341.234 26.2344 340.039 26.2344C338.914 26.2344 337.887 25.9688 336.957 25.4375C336.027 24.9062 335.297 24.1758 334.766 23.2461C334.234 22.3164 333.969 21.2891 333.969 20.1641C333.969 19.0312 334.234 17.9961 334.766 17.0586C335.297 16.1211 336.027 15.3867 336.957 14.8555C337.887 14.3164 338.914 14.0469 340.039 14.0469C341.164 14.0469 342.172 14.3086 343.062 14.832C343.961 15.3477 344.617 16.0391 345.031 16.9062L343.133 17.9375C342.891 17.3984 342.488 16.9688 341.926 16.6484C341.371 16.3203 340.742 16.1562 340.039 16.1562C338.93 16.1562 338 16.543 337.25 17.3164C336.5 18.082 336.125 19.0312 336.125 20.1641C336.125 21.2812 336.5 22.2227 337.25 22.9883C338 23.7461 338.93 24.125 340.039 24.125C340.797 24.125 341.477 23.957 342.078 23.6211C342.68 23.2852 343.129 22.8203 343.426 22.2266L345.371 23.1172ZM349.742 9.19531V26H347.504V9.19531H349.742ZM353.926 9.03125C354.324 9.03125 354.672 9.17969 354.969 9.47656C355.266 9.77344 355.414 10.1211 355.414 10.5195C355.414 10.9258 355.266 11.2773 354.969 11.5742C354.672 11.8633 354.324 12.0078 353.926 12.0078C353.512 12.0078 353.16 11.8633 352.871 11.5742C352.582 11.2852 352.438 10.9336 352.438 10.5195C352.438 10.1211 352.582 9.77344 352.871 9.47656C353.168 9.17969 353.52 9.03125 353.926 9.03125ZM352.801 14.293H355.039V26H352.801V14.293ZM369.043 19.6367C369.043 19.8555 369.027 20.1602 368.996 20.5508H359.633C359.734 21.6758 360.141 22.5742 360.852 23.2461C361.57 23.9102 362.469 24.2422 363.547 24.2422C364.289 24.2422 364.969 24.0859 365.586 23.7734C366.203 23.4609 366.66 23.043 366.957 22.5195L368.727 23.668C368.281 24.4648 367.594 25.0938 366.664 25.5547C365.734 26.0078 364.672 26.2344 363.477 26.2344C362.656 26.2344 361.875 26.0781 361.133 25.7656C360.391 25.4531 359.75 25.0273 359.211 24.4883C358.68 23.9414 358.258 23.2891 357.945 22.5312C357.633 21.7656 357.477 20.9531 357.477 20.0938C357.477 18.9844 357.738 17.9688 358.262 17.0469C358.785 16.1172 359.504 15.3867 360.418 14.8555C361.34 14.3164 362.352 14.0469 363.453 14.0469C365.023 14.0469 366.348 14.5859 367.426 15.6641C368.504 16.7422 369.043 18.0664 369.043 19.6367ZM359.727 18.875H366.758C366.688 18 366.336 17.2852 365.703 16.7305C365.07 16.1758 364.289 15.8984 363.359 15.8984C362.438 15.8984 361.652 16.168 361.004 16.707C360.355 17.2461 359.93 17.9688 359.727 18.875ZM377.527 14.0469C378.988 14.0469 380.152 14.5273 381.02 15.4883C381.895 16.4414 382.332 17.7148 382.332 19.3086V26H380.117V19.6133C380.117 18.582 379.836 17.7617 379.273 17.1523C378.711 16.5352 377.961 16.2266 377.023 16.2266C376.344 16.2266 375.703 16.3984 375.102 16.7422C374.5 17.0781 374.039 17.5312 373.719 18.1016V26H371.48V14.293H373.719V15.9922C374.078 15.4062 374.605 14.9375 375.301 14.5859C375.996 14.2266 376.738 14.0469 377.527 14.0469ZM391.273 23.9609L391.391 25.9062C391.016 26.0625 390.594 26.1406 390.125 26.1406C388.859 26.1406 387.836 25.7578 387.055 24.9922C386.281 24.2188 385.895 23.1484 385.895 21.7812V16.4023H383.621V14.293H385.895V11.1172H388.109V14.293H391.273V16.4023H388.109V21.6758C388.109 22.418 388.324 23.0039 388.754 23.4336C389.184 23.8633 389.734 24.0781 390.406 24.0781C390.727 24.0781 391.016 24.0391 391.273 23.9609ZM397.73 26.2344C396.816 26.2344 395.914 26.082 395.023 25.7773C394.141 25.4727 393.418 25.0664 392.855 24.5586L393.77 22.9062C394.223 23.3438 394.82 23.7031 395.562 23.9844C396.305 24.2578 397.02 24.3945 397.707 24.3945C398.379 24.3945 398.926 24.2461 399.348 23.9492C399.777 23.6445 399.992 23.2656 399.992 22.8125C399.992 22.4609 399.867 22.168 399.617 21.9336C399.367 21.6992 399.043 21.5195 398.645 21.3945C398.246 21.2617 397.805 21.1445 397.32 21.043C396.844 20.9336 396.363 20.8047 395.879 20.6562C395.402 20.5 394.965 20.3125 394.566 20.0938C394.168 19.8672 393.844 19.5469 393.594 19.1328C393.344 18.7109 393.219 18.207 393.219 17.6211C393.219 16.5586 393.629 15.6992 394.449 15.043C395.27 14.3789 396.34 14.0469 397.66 14.0469C398.48 14.0469 399.27 14.1758 400.027 14.4336C400.793 14.6914 401.422 15.0586 401.914 15.5352L400.953 17.2109C400.547 16.8125 400.004 16.5 399.324 16.2734C398.645 16.0391 398.02 15.9219 397.449 15.9219C396.84 15.9219 396.352 16.0625 395.984 16.3438C395.617 16.6172 395.434 16.9805 395.434 17.4336C395.434 17.7539 395.559 18.0234 395.809 18.2422C396.059 18.4531 396.383 18.625 396.781 18.7578C397.18 18.8828 397.617 19.0039 398.094 19.1211C398.578 19.2305 399.062 19.3711 399.547 19.543C400.031 19.707 400.473 19.9102 400.871 20.1523C401.27 20.3945 401.594 20.7344 401.844 21.1719C402.094 21.6094 402.219 22.1289 402.219 22.7305C402.219 23.7461 401.801 24.5859 400.965 25.25C400.129 25.9062 399.051 26.2344 397.73 26.2344Z" fill="#5E5B58"/>
<path d="M50.5 18.3275L55.135 21.125L53.905 15.8525L58 12.305L52.6075 11.8475L50.5 6.875L48.3925 11.8475L43 12.305L47.095 15.8525L45.865 21.125L50.5 18.3275Z" fill="#020202"/>
<path d="M71.5 18.3275L76.135 21.125L74.905 15.8525L79 12.305L73.6075 11.8475L71.5 6.875L69.3925 11.8475L64 12.305L68.095 15.8525L66.865 21.125L71.5 18.3275Z" fill="#020202"/>
<path d="M92.5 18.3275L97.135 21.125L95.905 15.8525L100 12.305L94.6075 11.8475L92.5 6.875L90.3925 11.8475L85 12.305L89.095 15.8525L87.865 21.125L92.5 18.3275Z" fill="#020202"/>
<path d="M113.5 18.3275L118.135 21.125L116.905 15.8525L121 12.305L115.608 11.8475L113.5 6.875L111.392 11.8475L106 12.305L110.095 15.8525L108.865 21.125L113.5 18.3275Z" fill="#020202"/>
<path d="M134.5 18.3275L139.135 21.125L137.905 15.8525L142 12.305L136.608 11.8475L134.5 6.875L132.392 11.8475L127 12.305L131.095 15.8525L129.865 21.125L134.5 18.3275Z" fill="#020202"/>
</svg>
