<svg width="129" height="52" viewBox="0 0 129 52" fill="none" xmlns="http://www.w3.org/2000/svg">
<mask id="mask0_50_1818" style="mask-type:alpha" maskUnits="userSpaceOnUse" x="0" y="0" width="28" height="52">
<rect width="28" height="52" fill="#D9D9D9"/>
</mask>
<g mask="url(#mask0_50_1818)">
<path d="M0.978226 0.999969C7.44176 0.999969 13.6406 3.5676 18.211 8.13801C22.7814 12.7084 25.349 18.9072 25.349 25.3708C25.349 31.8343 22.7814 38.0331 18.211 42.6035C13.6406 47.1739 7.44177 49.7416 0.97823 49.7416L0.978226 25.3708L0.978226 0.999969Z" fill="black"/>
</g>
<path d="M52.8662 16.2949V19.2148H47.2803V34.5H44.2461V19.2148H38.6475V16.2949H52.8662ZM59.4805 21.5254C60.0645 21.5254 60.5511 21.5931 60.9404 21.7285L60.7627 24.458C60.2718 24.2887 59.7682 24.2041 59.252 24.2041C58.7272 24.2041 58.1729 24.403 57.5889 24.8008C57.0049 25.1901 56.5521 25.7191 56.2305 26.3877V34.5H53.3486V21.792H56.2305V23.5312C56.5436 22.9388 57.0133 22.4564 57.6396 22.084C58.266 21.7116 58.8796 21.5254 59.4805 21.5254ZM71.541 21.792H74.4355V34.5H71.541V32.7861C71.2025 33.3617 70.6523 33.8356 69.8906 34.208C69.1374 34.5719 68.3376 34.7539 67.4912 34.7539C65.7816 34.7539 64.3343 34.1149 63.1494 32.8369C61.973 31.5589 61.3848 29.9889 61.3848 28.127C61.3848 26.2819 61.973 24.7204 63.1494 23.4424C64.3343 22.1644 65.7816 21.5254 67.4912 21.5254C68.3291 21.5254 69.1289 21.7116 69.8906 22.084C70.6523 22.4564 71.2025 22.9303 71.541 23.5059V21.792ZM68.0879 31.999C68.7988 31.999 69.4717 31.8213 70.1064 31.4658C70.7497 31.1104 71.2279 30.6576 71.541 30.1074V26.21C71.2279 25.6429 70.7539 25.1816 70.1191 24.8262C69.4844 24.4622 68.8073 24.2803 68.0879 24.2803C66.9961 24.2803 66.082 24.6484 65.3457 25.3848C64.6094 26.1126 64.2412 27.0267 64.2412 28.127C64.2412 29.2272 64.6094 30.1497 65.3457 30.8945C66.082 31.6309 66.9961 31.999 68.0879 31.999ZM89.3525 31.2754C88.8701 32.3333 88.1042 33.1797 87.0547 33.8145C86.0052 34.4408 84.8203 34.7539 83.5 34.7539C81.6126 34.7539 80.0299 34.1234 78.752 32.8623C77.4824 31.6012 76.8477 30.0312 76.8477 28.1523C76.8477 26.9167 77.1354 25.791 77.7109 24.7754C78.2865 23.7598 79.082 22.9642 80.0977 22.3887C81.1133 21.8132 82.2389 21.5254 83.4746 21.5254C84.7018 21.5254 85.8021 21.8047 86.7754 22.3633C87.7572 22.9219 88.485 23.6751 88.959 24.623L86.5088 25.9941C86.2464 25.4779 85.8444 25.0674 85.3027 24.7627C84.7695 24.458 84.1602 24.3057 83.4746 24.3057C82.3913 24.3057 81.4899 24.6738 80.7705 25.4102C80.0596 26.138 79.7041 27.0521 79.7041 28.1523C79.7041 29.2357 80.0638 30.1455 80.7832 30.8818C81.5111 31.6097 82.4167 31.9736 83.5 31.9736C84.2448 31.9736 84.9049 31.8086 85.4805 31.4785C86.056 31.1484 86.4876 30.6914 86.7754 30.1074L89.3525 31.2754ZM98.8613 31.8213L99.0264 34.373C98.6117 34.5762 98.0911 34.6777 97.4648 34.6777C96.0345 34.6777 94.8792 34.2419 93.999 33.3701C93.1188 32.4899 92.6787 31.2796 92.6787 29.7393V24.5469H90.2412V21.792H92.6787V18.377H95.5605V21.792H98.8994V24.5469H95.5605V29.6123C95.5605 30.3317 95.7806 30.9072 96.2207 31.3389C96.6693 31.762 97.2236 31.9736 97.8838 31.9736C98.1969 31.9736 98.5228 31.9229 98.8613 31.8213Z" fill="black"/>
</svg>
