<svg width="381" height="323" viewBox="0 0 381 323" fill="none" xmlns="http://www.w3.org/2000/svg">
<path d="M29 161.5C29 72.306 101.306 0 190.5 0C279.694 0 352 72.306 352 161.5V323H190.5C101.306 323 29 250.694 29 161.5Z" fill="#DAFD00"/>
<g clip-path="url(#clip0_50_1798)">
<path d="M0 230.159C47.6756 230.159 47.6756 281.6 95.3484 281.6C143.021 281.6 143.02 230.159 190.697 230.159C238.374 230.159 238.372 281.6 286.045 281.6C333.718 281.6 333.723 230.159 381.402 230.159" stroke="black" stroke-width="3.5" stroke-miterlimit="10"/>
<path d="M0 230.159C47.6756 230.159 47.6756 281.6 95.3484 281.6C143.021 281.6 143.02 230.159 190.697 230.159C238.374 230.159 238.372 281.6 286.045 281.6C333.718 281.6 333.723 230.159 381.402 230.159" stroke="black" stroke-width="3.5" stroke-miterlimit="10"/>
<path d="M0 178.719C47.6756 178.719 47.6756 230.159 95.3484 230.159C143.021 230.159 143.02 178.719 190.697 178.719C238.374 178.719 238.372 230.159 286.045 230.159C333.718 230.159 333.723 178.719 381.402 178.719" stroke="black" stroke-width="3.5" stroke-miterlimit="10"/>
<path d="M0 127.28C47.6756 127.28 47.6756 178.72 95.3484 178.72C143.021 178.72 143.02 127.28 190.697 127.28C238.374 127.28 238.372 178.72 286.045 178.72C333.718 178.72 333.723 127.28 381.402 127.28" stroke="black" stroke-width="3.5" stroke-miterlimit="10"/>
<path d="M0 75.8392C47.6756 75.8392 47.6756 127.28 95.3484 127.28C143.021 127.28 143.02 75.8392 190.697 75.8392C238.374 75.8392 238.372 127.28 286.045 127.28C333.718 127.28 333.723 75.8392 381.402 75.8392" stroke="black" stroke-width="3.5" stroke-miterlimit="10"/>
<path d="M0 24.3987C47.6756 24.3987 47.6756 75.8392 95.3484 75.8392C143.021 75.8392 143.02 24.3987 190.697 24.3987C238.374 24.3987 238.372 75.8392 286.045 75.8392C333.718 75.8392 333.723 24.3987 381.402 24.3987" stroke="black" stroke-width="3.5" stroke-miterlimit="10"/>
</g>
<defs>
<clipPath id="clip0_50_1798">
<rect width="381" height="323" fill="white"/>
</clipPath>
</defs>
</svg>
