<svg width="65" height="65" viewBox="0 0 65 65" fill="none" xmlns="http://www.w3.org/2000/svg">
<rect width="65" height="65" rx="16" fill="black"/>
<g clip-path="url(#clip0_1_201)">
<path d="M27.2704 35.3567C26.539 35.3567 25.9461 35.9496 25.9461 36.681C25.9461 37.4124 26.539 38.0054 27.2704 38.0054C28.0018 38.0054 28.5947 37.4124 28.5947 36.681C28.5947 35.9496 28.0018 35.3567 27.2704 35.3567Z" stroke="white" stroke-width="1.1625" stroke-linecap="round" stroke-linejoin="round"/>
<path d="M32.8325 31.1188L28.204 35.7473" stroke="white" stroke-width="1.1625" stroke-linecap="round" stroke-linejoin="round"/>
<path d="M32.8325 31.119L23.5953 32.6553C23.5041 32.6708 23.4187 32.7103 23.3478 32.7696C23.2768 32.8289 23.2229 32.906 23.1914 32.993L21.7081 36.9461L27.0055 42.2434L30.9586 40.7602C31.0457 40.727 31.1227 40.6717 31.1819 40.5997C31.2411 40.5277 31.2805 40.4415 31.2963 40.3496L32.8325 31.119Z" stroke="white" stroke-width="1.1625" stroke-linecap="round" stroke-linejoin="round"/>
<path d="M21.8995 36.9999L20.158 38.7414C20.1079 38.7907 20.0682 38.8495 20.041 38.9143C20.0139 38.9791 19.9999 39.0486 19.9999 39.1189C19.9999 39.1891 20.0139 39.2586 20.041 39.3234C20.0682 39.3882 20.1079 39.447 20.158 39.4963L24.7004 44.0387C24.7497 44.0888 24.8085 44.1285 24.8733 44.1557C24.9381 44.1828 25.0076 44.1968 25.0778 44.1968C25.1481 44.1968 25.2176 44.1828 25.2824 44.1557C25.3472 44.1285 25.406 44.0888 25.4553 44.0387L27.1968 42.2972" stroke="white" stroke-width="1.1625" stroke-linecap="round" stroke-linejoin="round"/>
</g>
<g clip-path="url(#clip1_1_201)">
<path d="M32.2583 16.6292L38.335 22.7058" stroke="white" stroke-width="1.5625" stroke-linecap="round" stroke-linejoin="round"/>
<path d="M41.6494 26.0205L47.7261 32.0972" stroke="white" stroke-width="1.5625" stroke-linecap="round" stroke-linejoin="round"/>
<path d="M38.3349 26.0204C39.2502 26.9357 40.7342 26.9357 41.6495 26.0204C42.5648 25.1051 42.5648 23.6212 41.6495 22.7059C40.7342 21.7906 39.2502 21.7906 38.3349 22.7059C37.4196 23.6212 37.4196 25.1051 38.3349 26.0204Z" stroke="white" stroke-width="1.5625" stroke-linecap="round" stroke-linejoin="round"/>
<path d="M25.6293 26.5729C26.5446 27.4882 28.0286 27.4882 28.9439 26.5729C29.8592 25.6576 29.8592 24.1736 28.9439 23.2584C28.0286 22.3431 26.5446 22.3431 25.6293 23.2584C24.714 24.1736 24.714 25.6576 25.6293 26.5729Z" stroke="white" stroke-width="1.5625" stroke-linecap="round" stroke-linejoin="round"/>
<path d="M37.7827 38.7262C38.698 39.6415 40.1819 39.6415 41.0972 38.7262C42.0125 37.8109 42.0125 36.327 41.0972 35.4117C40.1819 34.4964 38.698 34.4964 37.7827 35.4117C36.8674 36.327 36.8674 37.8109 37.7827 38.7262Z" stroke="white" stroke-width="1.5625" stroke-linecap="round" stroke-linejoin="round"/>
<path d="M41.4077 26.2344C42.1943 27.6351 42.5731 29.228 42.5011 30.8328C42.4291 32.4377 41.9092 33.9903 41.0003 35.3149" stroke="white" stroke-width="1.5625" stroke-linecap="round" stroke-linejoin="round"/>
<path d="M29.0402 23.3551C30.3648 22.4462 31.9174 21.9263 33.5223 21.8543C35.1271 21.7823 36.7201 22.161 38.1207 22.9476" stroke="white" stroke-width="1.5625" stroke-linecap="round" stroke-linejoin="round"/>
</g>
<defs>
<clipPath id="clip0_1_201">
<rect width="16.9514" height="16.9514" fill="white" transform="matrix(-1 0 0 -1 34.9517 45.9514)"/>
</clipPath>
<clipPath id="clip1_1_201">
<rect width="25" height="25" fill="white" transform="translate(36.6777 10) rotate(45)"/>
</clipPath>
</defs>
</svg>
